<svg xmlns="http://www.w3.org/2000/svg" xmlns:xlink="http://www.w3.org/1999/xlink" width="1200.84" height="559.602" viewBox="0 0 1200.84 559.602"><defs><style>.a{fill:none;}.b{clip-path:url(#a);}.c{fill:#f2f2f2;}.d{fill:#605c5b;}.e{fill:#fff;}</style><clipPath id="a"><rect class="a" width="1200.84" height="559.602" transform="translate(0 0)"/></clipPath></defs><g transform="translate(0 0.002)"><g class="b" transform="translate(0 -0.002)"><path class="c" d="M2316.855,80.473s2.393-32.54,9.571-35.411,10.049,5.264,18.184,3.828,21.055-4.785,21.055-4.785-2.871,6.221,5.264,4.785,6.7-3.35,13.877-1.914,6.7,6.221,9.092,8.135.479,14.356,5.742,11.963,5.264-5.264,6.7-.957,2.871,20.1,2.871,20.1l1.914-6.221s6.7-9.092,7.178-13.877-10.049-12.442-6.7-18.184,7.178-10.528,5.742-15.313-6.221-5.264-12.442-7.178-10.049-2.871-11.485-7.657,0-8.614-7.178-9.571-10.528-2.393-17.227-.957-7.657,3.828-14.834,3.828-5.264-4.307-14.356-.479-13.877,6.7-16.27,11.006-10.049,17.706-10.049,17.706-6.7-.479-4.307,7.657,4.307,32.062,4.307,32.062Z" transform="translate(-1756.292 -5.058)"/><path class="c" d="M1973.4,559.32c-1.648,0-36.8,13.732-49.435,19.225s-32.407,7.69-35.154,35.7-24.168,130.729-24.168,130.729l-13.183,99.42,1.648,29.661,22.521,1.648,17.577,3.845s9.887-12.084,9.338-13.732,12.633-82.941,12.633-82.941l12.084-84.589s7.141,28.563,8.239,40.1-1.293,85.866-1.293,85.866,24.594,28.093,35.579,32.488,21.674,11.53,34.217,13.5c26.249,4.12,53.917-1.964,70.945-13.5s24.3-21.014,24.3-21.014l13.041-157.534s43.838,142.759,43.838,141.111,3.479,47.614,3.479,47.614l46.689-9.887-2.746-39-6.042,1.1s-4.943-42.844-8.239-65.364-19.774-108.208-20.323-110.955-8.789-35.7-23.07-46.689-29.112-20.323-40.647-24.168-50.534-12.084-50.534-12.084.549,13.732-3.845,24.717-25.267,37.9-25.267,37.9l-13.183,34.6-20.323-49.985-6.591-7.69Z" transform="translate(-1408.466 -425.493)"/><path class="d" d="M1830.635,1743.938c-.928-.365-1.535-1.771-1.877-2.683a24.166,24.166,0,0,1-1.193-5.041,74.768,74.768,0,0,1-.441-10.84c.009-4.37.01-8.75.3-13.112.111-1.659.262-3.319.509-4.964.119-.791.343-1.593.416-2.387.032-.348-.089.118-.2.238-.5.557-.176.149-.155.122.134-.182-.26.2-.1.039.057-.056.611-.1.124-.046.162-.018.325-.024.488-.028.444-.012.89.016,1.333.047,1.307.093,2.609.259,3.91.412,4.249.5,8.5.926,12.777,1.14,9.266.465,18.512.506,27.727,1.729a51.477,51.477,0,0,1,9.366,1.805l-1.054-1.384c-.282,5.161-1.067,10.252-1.6,15.388-.326,3.129-.806,6.247-1.1,9.378a47.231,47.231,0,0,1-1.163,8.045,10.837,10.837,0,0,1-1.753,3.9,12.783,12.783,0,0,1-1.367,1.445,6.658,6.658,0,0,1-.636.542c-.158.114-.609.243-.37.252-1.848-.068-1.845,2.8,0,2.871,1.266.046,2.4-1.013,3.241-1.831a12.121,12.121,0,0,0,2.317-2.945c1.52-2.842,1.994-6.144,2.328-9.308.689-6.526,1.287-13.092,2.23-19.588.392-2.7.6-5.424.744-8.149a1.46,1.46,0,0,0-1.054-1.384,48.664,48.664,0,0,0-8.376-1.668c-9.508-1.362-19.048-1.5-28.625-1.928-4.561-.2-9.1-.65-13.632-1.181-2.022-.237-4.641-.913-6.652-.271-1.164.372-1.461,1.237-1.663,2.345-.328,1.793-.564,3.606-.731,5.421-.4,4.32-.428,8.671-.448,13.006a90.834,90.834,0,0,0,.538,13.653c.5,3.444,1.414,8.29,5.075,9.729,1.72.676,2.466-2.1.763-2.769" transform="translate(-1387.761 -1294.984)"/><path class="d" d="M2070.888,1262.054c5.493-24.912,8.474-50.267,12.476-75.438,1.543-9.7,2.576-19.476,4.128-29.18,1.112-6.954,2.236-13.9,3.2-20.882a193.362,193.362,0,0,0,1.884-20.888c.054-1.848-2.817-1.847-2.871,0-.382,13.147-2.553,26.085-4.653,38.969q-.875,5.372-1.643,10.762c-.762,5.418-1.256,10.889-2.141,16.287-2.051,12.5-3.794,25.038-5.674,37.56-2.113,14.079-4.409,28.139-7.475,42.046-.4,1.8,2.37,2.57,2.769.763" transform="translate(-1573.258 -847.67)"/><path class="d" d="M2132.583,954.62c1.291,10.839,4.2,21.4,5.583,32.224a158.869,158.869,0,0,1,.9,16.626c.126,5.653.706,11.253,1.217,16.881,1.015,11.172,1.9,22.358,2.45,33.563.271,5.527.378,11.1.413,16.635a79.333,79.333,0,0,1-.537,11.005c-.255,1.9-.752,3.776-.924,5.69-.371,4.146.268,8.357.285,12.509a1.437,1.437,0,0,0,2.871,0c-.016-3.8-.448-7.586-.344-11.384.014-.519.042-1.036.1-1.552-.041.337.007-.043.027-.163.033-.19.064-.381.1-.571.15-.834.319-1.665.458-2.5,1.4-8.452.756-17.158.563-25.676-.253-11.2-1.259-22.415-2.239-33.571-.487-5.543-1.173-11.09-1.436-16.649-.264-5.593-.121-11.2-.6-16.785-1.052-12.245-4.567-24.1-6.018-36.283-.216-1.812-3.09-1.834-2.871,0" transform="translate(-1622.318 -725.171)"/><path class="d" d="M1845.855,829.127c-.027-2.452-.22-4.92-.057-7.37.218-3.27,1-6.509,1.533-9.736a177.23,177.23,0,0,0,1.642-19.526c.346-6.6.44-13.274,2.248-19.672.83-2.937,1.823-5.827,2.552-8.792a86.577,86.577,0,0,0,1.657-9.168,177.415,177.415,0,0,0,1.532-19.949,198.168,198.168,0,0,1,1.24-19.981c.417-3.423.881-6.841,1.24-10.271.354-3.375.447-6.739.625-10.124.347-6.569,2.438-12.928,3.394-19.416.832-5.649,1.208-11.357,2.049-17.006.877-5.894,2.184-11.707,3.4-17.538,1.2-5.771,2.394-11.546,3.775-17.277a85.181,85.181,0,0,1,4.683-13.411c3.612-8.485,7.437-17.916,14.757-23.934,4.056-3.334,8.814-5.808,13.486-8.153,5.456-2.739,10.85-5.615,16.516-7.906a207.6,207.6,0,0,1,24.362-8.493c5.1-1.355,10.229-2.848,15.392-3.914a63.93,63.93,0,0,0,7.919-2.126c1.736-.6.99-3.373-.763-2.769-4.307,1.484-8.8,2.1-13.149,3.388-2.3.682-4.619,1.258-6.943,1.833a177.726,177.726,0,0,0-19.93,6.34c-5.777,2.175-11.486,4.469-17.021,7.21-5.052,2.5-10.181,4.956-15.033,7.833a38.944,38.944,0,0,0-11.144,9.183,62.883,62.883,0,0,0-8.034,13.429c-1.92,4.335-3.848,8.675-5.533,13.109a102.808,102.808,0,0,0-3.956,14.706c-2.506,11.457-5.094,22.933-6.444,34.593-.345,2.983-.631,5.974-.994,8.955-.412,3.376-1.157,6.7-1.859,10.029a83.5,83.5,0,0,0-1.689,9.757c-.3,3.354-.256,6.726-.572,10.082-.644,6.857-1.81,13.66-2.269,20.536-.455,6.826-.235,13.679-.748,20.5a116.145,116.145,0,0,1-2.773,19.432c-.761,3.041-1.792,6-2.625,9.024a49.336,49.336,0,0,0-1.562,9.3c-.535,6.743-.734,13.508-1.216,20.254-.245,3.427-.572,6.829-1.156,10.217a92.119,92.119,0,0,0-1.457,9.447c-.163,2.451.03,4.918.057,7.37a1.436,1.436,0,0,0,2.871,0" transform="translate(-1401.927 -420.311)"/><path class="d" d="M2350,572.106a63.744,63.744,0,0,0-4.844,18.09,46.742,46.742,0,0,0,1.076,14.6c1.131,5.067,2.837,9.984,4.365,14.94,1.048,3.4,1.747,6.9,2.838,10.286a12.376,12.376,0,0,0,1.988,4.456,1.679,1.679,0,0,0,2.11.523c.956-.545.87-1.861.928-2.805a35.946,35.946,0,0,1,2.426-9.886,38.246,38.246,0,0,1,2.112-5.008,12.366,12.366,0,0,1,1.053-1.726,8.155,8.155,0,0,1,.618-.635c-.207.208.089-.023.119-.049-.093.083-.053.094-.221.045.119.034-.259-.218.08.08.063.056.453.454.621.641a18.407,18.407,0,0,1,1.709,2.339,65.577,65.577,0,0,1,3.614,6.465c1.282,2.583,2.305,5.246,3.374,7.921q2.113,5.293,4.325,10.544c2.928,6.992,5.9,13.963,8.72,21,.679,1.694,3.457.955,2.769-.763-2.843-7.1-5.845-14.133-8.8-21.187-2.6-6.21-4.8-12.653-7.777-18.7a62.656,62.656,0,0,0-4.057-7.206c-.933-1.395-2.218-3.557-4-3.953-1.75-.389-3.077,1.209-3.918,2.5a29.642,29.642,0,0,0-2.652,5.671c-.753,1.983-1.411,4-2.012,6.037a21.351,21.351,0,0,0-.623,2.461,27.457,27.457,0,0,0-.315,2.77c-.024.351-.041.7-.065,1.053-.048.728-.22.553.229.131l1.015-.42a3.039,3.039,0,0,1,.711.2c.023-.045.121.255.022.018-.092-.218-.248-.426-.354-.641a16.57,16.57,0,0,1-.755-1.952c-.574-1.69-1.053-3.412-1.516-5.135-.858-3.2-1.71-6.36-2.707-9.519-2.553-8.09-4.962-16.194-4.214-24.776a60.954,60.954,0,0,1,4.771-17.652c.7-1.708-2.076-2.452-2.769-.763" transform="translate(-1783.907 -434.494)"/><path class="d" d="M2365.766,554.244c-.16,12.67,3.258,25.718,8.457,37.2a63.788,63.788,0,0,0,4.866,8.927c1.015,1.534,3.5.1,2.479-1.449a71.966,71.966,0,0,1-7.731-16.157,97.653,97.653,0,0,1-4.552-18.664,66.016,66.016,0,0,1-.647-9.86,1.437,1.437,0,0,0-2.871,0" transform="translate(-1799.713 -420.577)"/><path class="d" d="M2520.731,553.485a75.491,75.491,0,0,1-2.129,20.786,50.438,50.438,0,0,1-8.325,18.694c-4.317,5.876-9.512,11.045-13.859,16.9-4.455,6-7.514,13.18-9.961,20.211-4.431,12.733-6.162,26.388-8.547,39.61-1.486,8.238-2.2,16.549-3.254,24.853-1.866,14.668-2.761,29.517-3.776,44.271-.027.4-.067.791-.113,1.187-.03.262.063-.458,0,.016s-.117.93-.158,1.4c-.359,4.014-.654,8.034-.977,12.051-.8,10-1.644,20.007-2.151,30.029-1.1,21.759.876,43.546,1.485,65.291.082,2.936.139,5.872.142,8.808a1.437,1.437,0,0,0,2.871,0c-.022-23.174-2.618-46.327-1.824-69.507.557-16.245,2.032-32.526,3.556-48.7.186-1.973.256-3.962.4-5.938.663-9.086,1.45-18.163,2.234-27.239.716-8.29,1.8-16.529,2.723-24.8.16-1.44.316-2.881.48-4.321.014-.121.03-.241.045-.361-.067.523.005-.034.026-.167.127-.825.266-1.647.41-2.468,1.992-11.338,3.782-22.773,6.513-33.96a102.528,102.528,0,0,1,7.788-21.37c3.338-6.711,8.379-12.176,13.2-17.833,4.5-5.283,8.709-10.761,11.227-17.292a77.637,77.637,0,0,0,4.556-20.337,68.475,68.475,0,0,0,.292-9.817c-.085-1.84-2.957-1.85-2.871,0" transform="translate(-1876.844 -420.002)"/><path class="d" d="M2637.447,654.374c4.145,1,5.595,6.632,6.558,10.171.545,2,1.025,4.029,1.524,6.044.335,1.354.264,3.117.959,4.339a1.424,1.424,0,0,0,1.239.711c1.014-.045,1.418-.84,1.771-1.654.471-1.082.877-2.191,1.277-3.3.737-2.042,1.435-4.1,2.124-6.158,2.744-8.2,5.84-16.313,7.88-24.735a62.392,62.392,0,0,0,1.983-14.327,1.437,1.437,0,0,0-2.871,0c-.039,8.185-2.374,16.232-4.88,23.957-1.944,5.995-4.03,11.95-6.09,17.906-.454,1.314-.915,2.626-1.4,3.927-.159.421-.412,1.085-.528,1.354-.07.16-.16.317-.22.481-.213.574.14-.285.959-.322l1.24.711c.273.48.059.106.028-.105-.028-.192-.078-.384-.116-.574-.1-.506-.193-1.014-.287-1.521-.143-.767-.316-1.505-.51-2.261-.567-2.2-1.047-4.426-1.7-6.607-1.271-4.244-3.357-9.646-8.173-10.806-1.8-.433-2.562,2.335-.763,2.768" transform="translate(-2005.614 -474.758)"/><path class="d" d="M2691.01,554.38c3.982,5.249,8.1,10.573,10.246,16.881.593,1.739,3.367.993,2.769-.763-2.24-6.575-6.383-12.093-10.536-17.567-1.1-1.453-3.6-.024-2.479,1.449" transform="translate(-2046.927 -420.171)"/><path class="d" d="M2692.442,555.565c11.489,1.651,22.451,5.647,33.742,8.2a112.383,112.383,0,0,1,14.151,3.871,153.181,153.181,0,0,1,14.7,6.366c4.1,2.02,7.979,4.4,11.994,6.582,2.2,1.2,4.432,2.366,6.537,3.73a49.031,49.031,0,0,1,6.016,5,86.959,86.959,0,0,1,9.18,9.977,50.125,50.125,0,0,1,4.953,8.07c1.582,2.961,3.111,5.951,4.533,8.992a102.091,102.091,0,0,1,6.611,18.289c1.316,5.226,2.371,10.545,3.978,15.692.549,1.758,3.322,1.008,2.768-.763-1.448-4.637-2.433-9.421-3.591-14.135a105.824,105.824,0,0,0-5.337-16.159A146.633,146.633,0,0,0,2793.7,601.4,61.728,61.728,0,0,0,2784,589.532a57.2,57.2,0,0,0-11.613-9.276c-4.016-2.287-8.036-4.631-12.116-6.8-9.1-4.837-18.77-9.1-28.834-11.436-6.441-1.5-12.834-3.071-19.2-4.857a149.167,149.167,0,0,0-19.023-4.366,1.486,1.486,0,0,0-1.766,1,1.445,1.445,0,0,0,1,1.766" transform="translate(-2047.433 -420.513)"/><path class="d" d="M3182.192,954.831c3.2,20.573,7.37,40.983,11.322,61.421,2,10.337,4.005,20.653,5.357,31.1.716,5.531,1.416,11.074,2.555,16.537s2.535,10.9,3.758,16.351c2.749,12.259,5.037,24.674,5.065,37.279a1.437,1.437,0,0,0,2.871,0c-.025-11.232-1.811-22.362-4.136-33.324-1.161-5.475-2.455-10.92-3.725-16.37-1.3-5.564-2.286-11.147-3.039-16.81-.735-5.529-1.376-11.074-2.362-16.566-.886-4.935-1.826-9.861-2.771-14.786-2-10.432-4.066-20.851-6.057-31.285-2.178-11.408-4.284-22.832-6.068-34.309-.283-1.82-3.05-1.047-2.769.763" transform="translate(-2420.785 -725.001)"/><path class="d" d="M2889.527,1125.379c.4-2.674.644-5.382.991-8.063q.527-4.07,1.047-8.14.923-7.231,1.818-14.465,1.385-11.219,2.665-22.45c.943-8.371,1.845-16.752,2.474-25.154.269-3.594.543-7.211.647-10.815.128-4.448-.181-8.938-.186-13.392,0-2.925.021-5.851.141-8.773.069-1.681.169-3.362.351-5.034.031-.277.064-.554.1-.831.012-.1.079-.588.013-.107.019-.139.038-.278.058-.417.067-.453.136-.906.2-1.358.94-6.222,1.214-12.583,1.607-18.858.363-5.8.529-11.614.849-17.418.018-.324.036-.649.062-.973.013-.163.105-.954.024-.364a1.487,1.487,0,0,0-1-1.766,1.444,1.444,0,0,0-1.766,1c-.592,4.31-.46,8.776-.678,13.114-.395,7.861-.849,15.759-1.734,23.581a1.616,1.616,0,0,1-.041.31c-.034.226-.067.453-.1.68-.069.456-.141.911-.206,1.368-.188,1.326-.337,2.655-.437,3.99-.439,5.846-.35,11.741-.269,17.6.05,3.615.155,7.193-.031,10.8-.1,1.89-.2,3.778-.333,5.666-.513,7.513-1.285,15.009-2.1,22.494-1.774,16.283-3.825,32.535-5.925,48.778-.178,1.375-.449,2.734-.6,4.113s-.2,2.756-.408,4.122c-.272,1.808,2.494,2.587,2.769.763" transform="translate(-2196.04 -735.594)"/><path class="d" d="M2934.3,1128.584c6.85,18.6,11.376,37.915,16.168,57.115.561,2.246,1.406,4.382,2.105,6.584.743,2.34,1.324,4.742,1.935,7.119,1.245,4.841,2.39,9.707,3.486,14.583,1.087,4.838,2.127,9.686,3.156,14.536.507,2.393,1.015,4.787,1.548,7.174s1.216,4.744,1.583,7.15a112.929,112.929,0,0,0,2.235,11.148c.249.97.521,1.935.75,2.909.084.357.16.715.221,1.077.054.324,0-.185.022.2.01.167.021.332.023.5a1.436,1.436,0,0,0,2.871,0,18.009,18.009,0,0,0-.829-4.34c-.716-2.723-1.345-5.463-1.853-8.233-.425-2.318-.725-4.646-1.276-6.938-.571-2.376-1.1-4.762-1.618-7.151-1.041-4.817-2.048-9.641-3.1-14.456-2.135-9.74-4.157-19.656-7.435-29.085-1.584-4.557-2.5-9.388-3.666-14.067-1.188-4.78-2.387-9.557-3.641-14.321-2.865-10.886-6.023-21.7-9.915-32.27-.633-1.719-3.409-.976-2.769.763" transform="translate(-2232.152 -857.229)"/><path class="d" d="M2160.637,1645.554a262.846,262.846,0,0,0,28.036,26.2c11.115,8.723,23.319,16.132,36.708,20.791a95.5,95.5,0,0,0,24.535,5.059c1.844.133,1.835-2.739,0-2.871a98.52,98.52,0,0,1-40.754-12.645c-11.685-6.512-22.212-14.879-31.956-24-5.009-4.691-9.816-9.589-14.54-14.566-1.275-1.343-3.3.69-2.03,2.03" transform="translate(-1643.362 -1249.948)"/><path class="d" d="M2530.681,1744.684c6.614-.573,13.186-1.642,19.708-2.865,6.55-1.228,13.133-2.522,19.539-4.373a107.749,107.749,0,0,0,34.478-16.764,76.176,76.176,0,0,0,13.937-13.2c1.148-1.427-.871-3.471-2.03-2.03-7.26,9.024-16.826,15.985-27.068,21.269a110.4,110.4,0,0,1-18.118,7.367,182.773,182.773,0,0,1-18.669,4.415,205.191,205.191,0,0,1-21.777,3.306c-1.827.158-1.844,3.031,0,2.871" transform="translate(-1924.127 -1297.024)"/><path class="d" d="M2163.035,1576.5a94.209,94.209,0,0,1,.659-10.35,54.155,54.155,0,0,1,2.085-10.746c.575-1.76-2.2-2.515-2.769-.763a57.142,57.142,0,0,0-2.148,11.156,94.679,94.679,0,0,0-.7,10.7,1.436,1.436,0,0,0,2.871,0" transform="translate(-1643.309 -1181.912)"/><path class="d" d="M2886.56,1623.149a158.446,158.446,0,0,1,1.1,20.045,1.437,1.437,0,0,0,2.871,0,158.446,158.446,0,0,0-1.1-20.045c-.234-1.807-3.108-1.83-2.871,0" transform="translate(-2195.892 -1233.746)"/><path class="d" d="M2475.369,1860.566c-.459,13.339-.865,26.68-.986,40.027q-.045,5.068-.044,10.136a1.437,1.437,0,0,0,2.871,0c0-12.39.234-24.776.606-37.16q.2-6.5.423-13c.063-1.848-2.808-1.846-2.871,0" transform="translate(-1882.313 -1414.341)"/><path class="d" d="M2480.236,1911.632a17.5,17.5,0,0,0,9.964-2.349,14.219,14.219,0,0,0,5.361-6.815c2.408-6,2.015-12.957,1.623-19.274-.227-3.649-.572-7.294-.654-10.951-.041-1.845-2.913-1.851-2.871,0,.139,6.206.977,12.378.893,18.592-.07,5.215-.6,11.618-4.851,15.262-2.6,2.234-6.147,2.738-9.464,2.663-1.848-.042-1.848,2.829,0,2.871" transform="translate(-1885.745 -1423.223)"/><path class="d" d="M2135.141,1650.489a232.694,232.694,0,0,0-7.625,50.364,373.36,373.36,0,0,0,1.61,51.845c.929,9.969,2.13,19.91,3.463,29.833a1.485,1.485,0,0,0,1.436,1.436,1.442,1.442,0,0,0,1.436-1.436c-2.329-17.338-4.26-34.748-5.03-52.232a290.836,290.836,0,0,1,1.848-51,213.979,213.979,0,0,1,5.632-28.042,1.437,1.437,0,0,0-2.769-.763" transform="translate(-1618.235 -1254.809)"/><path class="d" d="M2891.155,1706.91c2.053,18.008,4.879,35.919,7.825,53.8,2.646,16.063,5.86,32.054,7.584,48.254q1.028,9.656,1.361,19.366c.062,1.843,2.933,1.851,2.871,0a308.129,308.129,0,0,0-3.9-38.213c-1.383-8.662-3.011-17.283-4.446-25.937-1.492-9-2.961-18-4.332-27.022-1.529-10.059-2.937-20.136-4.09-30.245-.207-1.815-3.081-1.836-2.871,0" transform="translate(-2199.391 -1297.462)"/><path class="d" d="M2515.567,2095.57c5.488,8.159,6.351,18.1,8.412,27.46.4,1.8,3.166,1.04,2.769-.763-2.117-9.614-3.063-19.764-8.7-28.146-1.026-1.525-3.514-.09-2.479,1.449" transform="translate(-1913.488 -1592.573)"/><path class="d" d="M2523.32,2144.133c.03-6.6,1.239-13.21,2.059-19.745.23-1.829-2.644-1.812-2.871,0-.82,6.536-2.029,13.143-2.059,19.745a1.436,1.436,0,0,0,2.871,0" transform="translate(-1917.39 -1615.054)"/><path class="d" d="M2141.007,1762.531a42.475,42.475,0,0,0,16.855,14.567c5.69,2.608,12.815,3.837,18.254-.049,3.445-2.462,5.44-6.286,6.6-10.272a1.437,1.437,0,0,0-2.768-.763,16.328,16.328,0,0,1-4.854,8.218,11.182,11.182,0,0,1-7,2.448c-6.123.1-12.1-3.262-16.695-7.039a41.81,41.81,0,0,1-7.92-8.557c-1.041-1.512-3.531-.078-2.479,1.449" transform="translate(-1628.543 -1339.225)"/><path class="d" d="M2748.871,1814.758c4.435,4.427,9.562,9.076,15.769,10.75,4.863,1.312,9.679.206,14.181-1.792a84.353,84.353,0,0,0,9.044-4.9,1.437,1.437,0,0,0-1.449-2.479c-4.4,2.637-9.008,5.507-14.1,6.576-4.516.949-8.784-.368-12.609-2.791a52.542,52.542,0,0,1-8.81-7.391,1.436,1.436,0,0,0-2.03,2.03" transform="translate(-2090.837 -1378.682)"/><path class="d" d="M2309.352,317.082c-1.234-1.769-2.916-4.022-5.106-4.609-2.443-.655-4.611,1.876-5.494,3.87-2.125,4.805-.62,10.534.29,15.452.954,5.154.957,10.73,3.47,15.475,1.156,2.183,3.3,3.942,5.842,2.894a6.6,6.6,0,0,0,2.285-1.655,11.823,11.823,0,0,0,.778-.954c.118-.158.5-.6.013-.041l-2.45-1.015a64.142,64.142,0,0,0,2.278,13.16c.7,2.74,1.352,5.505,2.254,8.187a68.393,68.393,0,0,0,7.955,16.117c6.919,10.354,17.483,19.837,30.61,19.967,8.971.089,17.133-4.274,23.926-9.8,1.434-1.167-.608-3.187-2.03-2.03-5.73,4.663-12.62,8.5-20.139,8.919a27.424,27.424,0,0,1-16.512-4.713c-9.674-6.3-16.6-17.051-20.519-27.739-.979-2.669-1.663-5.4-2.382-8.15a66.019,66.019,0,0,1-2.569-13.916,1.452,1.452,0,0,0-2.451-1.015c-.127.145-.218.288-.327.437-.314.43.189-.179-.171.222-.162.18-.317.366-.488.538-.1.105-.216.2-.323.306-.055.053-.117.1-.175.15-.184.159.3-.2-.019.013-.132.087-.265.17-.4.255s-.6.24-.154.091a2.633,2.633,0,0,1-.449.132c-.293.041.363-.065.073-.008a.753.753,0,0,1-.236.006c-.349-.058.277.128-.181-.036-.321-.115.185.146-.23-.1a4.9,4.9,0,0,1-.723-.674,12.61,12.61,0,0,1-1.8-4.2,53.648,53.648,0,0,1-1.5-8.342c-.491-4.294-1.8-8.5-1.691-12.851.054-2.107.491-4.5,2.27-5.862.812-.621,1.386.043,2.056.682a15.055,15.055,0,0,1,1.944,2.293c1.049,1.5,3.54.071,2.479-1.449" transform="translate(-1747.915 -237.628)"/><path class="d" d="M2707.822,329.99a15.372,15.372,0,0,1,3.448-3.249,1.847,1.847,0,0,1,1.043-.414c-.645.108.645-.027-.056,0a.627.627,0,0,1,.238.062c-.421-.25-.042-.019.021.032.233.19-.275-.2-.028-.021a.834.834,0,0,1,.181.188c.17.27-.179-.278,0,0a2.823,2.823,0,0,1,.151.253c.045.094.094.185.137.28-.156-.337,0,.006.02.07.09.273.171.546.236.825a15.793,15.793,0,0,1,.31,3.636,63.341,63.341,0,0,1-3.306,19.211c-.2.626-.424,1.248-.671,1.859,0,0-.082.2-.224.5-.121.249-.254.49-.392.73a11.961,11.961,0,0,1-2.324,3.164c-1.1.955-1.577.163-2.178-.97-.866-1.633-3.346-.184-2.479,1.449.713,1.345,1.761,2.7,3.382,2.878a4.426,4.426,0,0,0,3.505-1.517,15.865,15.865,0,0,0,3.314-5.069,51.014,51.014,0,0,0,2.727-9.609,67.159,67.159,0,0,0,1.51-11.9c.057-2.52.127-6.159-1.9-8.04-2.975-2.766-6.9,1.521-8.7,3.617-1.2,1.4.825,3.436,2.03,2.03" transform="translate(-2055.323 -246.051)"/><path class="d" d="M2693.6,458.82c-.9,7.538-2.521,15.051-2.548,22.668a1.436,1.436,0,0,0,2.871,0c.027-7.615,1.652-15.131,2.548-22.668.218-1.831-2.656-1.815-2.871,0" transform="translate(-2047.174 -347.999)"/><path class="d" d="M2431.508,370.191c-.008,1.534.373,3.029.4,4.56.035,1.845,2.907,1.851,2.871,0-.029-1.531-.41-3.027-.4-4.56a1.436,1.436,0,0,0-2.871,0" transform="translate(-1849.729 -280.561)"/><path class="d" d="M2312.081,76.158a46.122,46.122,0,0,0-1.28-11.808c-.885-4.4-1.954-8.768-2.625-13.209a42.792,42.792,0,0,1-.524-6.226,10.472,10.472,0,0,1,.166-2.764,5.146,5.146,0,0,1,1.513-2.048,16.032,16.032,0,0,0,3.087-4.976c.84-1.84,1.669-3.685,2.528-5.517,3.168-6.762,6.838-13.62,12.9-18.234,3.21-2.442,7.36-4.823,11.468-5,4.657-.2,9.186,1.142,13.832.2,4.8-.975,9.481-2.466,14.316-3.253a29.525,29.525,0,0,1,14.682,1.135c2.657.941,5.288,2.48,6.152,5.323.609,2,.486,4.169,1.3,6.116,1.169,2.788,4.091,4,6.847,4.718,3.352.876,6.889.819,10.2,1.845a10.046,10.046,0,0,1,4.4,2.7,9.341,9.341,0,0,1,2.644,4.913c.292,2.561-2.144,4.4-3.623,6.135-2.133,2.508-3.2,5.386-2.265,8.668,1.038,3.626,3.7,6.477,5.277,9.846,1.49,3.177.864,6.23-.673,9.248-1.642,3.225-3.7,6.214-4.855,9.673a19.272,19.272,0,0,0-.972,5.9,1.436,1.436,0,0,0,2.871,0c.044-4.084,1.757-7.585,3.739-11.057,1.7-2.974,3.476-6.035,3.67-9.538.223-4.012-2.222-7.4-4.227-10.646-1.714-2.777-3.342-5.916-1.356-8.977,1.521-2.343,3.984-3.955,4.945-6.674,1.248-3.53-1.016-7.457-3.49-9.867-2.706-2.636-6.25-3.488-9.877-3.978a50.712,50.712,0,0,1-5.355-.877,10.366,10.366,0,0,1-4.406-1.893c-1.392-1.247-1.351-3.5-1.673-5.4a10.1,10.1,0,0,0-4.015-6.678c-3.693-2.729-8.846-3.758-13.342-3.932-4.977-.192-9.866.932-14.663,2.128-2.475.617-4.95,1.282-7.458,1.749a25.177,25.177,0,0,1-7.08-.074,30.491,30.491,0,0,0-7.279-.152,21.316,21.316,0,0,0-6.448,2.289c-7.234,3.621-12.3,9.889-16.049,16.906-1.884,3.523-3.5,7.182-5.157,10.815-.42.92-.8,1.891-1.292,2.774a11.936,11.936,0,0,1-1.881,2.167,7.434,7.434,0,0,0-1.978,5.446c-.232,8.99,3.056,17.622,4.176,26.455a30.132,30.132,0,0,1,.245,5.638c-.114,1.845,2.758,1.839,2.871,0" transform="translate(-1753.322 0.002)"/><path class="d" d="M2337.661,199.951c-.271-7.118-.37-14.339.86-21.381a40.1,40.1,0,0,1,3.121-10.4,26.676,26.676,0,0,1,2.7-4.509,8.349,8.349,0,0,1,3.333-3.013c2.494-.981,5.4.294,7.669,1.315,2.732,1.229,5.444,2.774,8.4,3.393,3.508.733,6.665-.565,9.8-2.059,2.85-1.359,6.981-3.812,10.169-2.156,2.492,1.294,4.153,3.662,7.223,3.643a20.033,20.033,0,0,0,4.955-1.165,19.15,19.15,0,0,1,4.15-.746,16.2,16.2,0,0,1,4.615.516c1,.247,1.985.551,2.959.885a6.453,6.453,0,0,1,1.939.834,10.029,10.029,0,0,1,2.425,3.531,54.573,54.573,0,0,1,2.154,5.137c.7,1.859,1.364,3.73,2.077,5.584a13.461,13.461,0,0,0,1.158,2.675,2.8,2.8,0,0,0,2.444,1.346c1.565-.064,2.726-1.311,3.973-2.093.132-.083.27-.156.4-.238.068-.041.143-.07.213-.107.242-.13-.36.136-.054.024.127-.047.257-.07.387-.1.023-.006-.427.016-.129.028s-.009.048-.11-.03c.339.261-.053-.107.062,0,.087.082.164.193.061.028-.2-.317.079.127.076.1.015.219-.063-.1-.011-.018s.114.174.164.266.092.18.138.27c.129.25-.065-.208.063.153a19.338,19.338,0,0,1,.891,4.8c.278,3.15.307,6.323.286,9.484-.015,2.253-.07,4.506-.143,6.758-.06,1.848,2.811,1.846,2.871,0,.212-6.525.63-13.413-.624-19.871-.419-2.157-1.494-5.266-4.283-4.742-1.505.283-2.559,1.453-3.834,2.194-.135.078-.273.147-.412.219.638-.33-.13.024-.13.025-.088.154-.176-.109.141-.011a.634.634,0,0,0-.188,0c-.112.027.39.1.154.017-.3-.108.162.1.08.04-.129-.1-.21-.211.081.079a1.754,1.754,0,0,0-.161-.157c-.046.011.144.224.051.067-.055-.093-.115-.18-.165-.276-.082-.157-.146-.291-.028-.029-.194-.43-.354-.879-.526-1.319-.4-1.033-.785-2.072-1.168-3.112-1.3-3.523-2.478-7.267-4.5-10.46a8.332,8.332,0,0,0-2.9-3.027,23.063,23.063,0,0,0-5.787-1.87,19.554,19.554,0,0,0-9.346.308c-1.521.4-3.287,1.3-4.881,1.126a7.067,7.067,0,0,1-3.323-1.828,9.96,9.96,0,0,0-3.8-2.093,11.207,11.207,0,0,0-5.7.425c-3.708,1.151-7.094,3.885-11.005,4.317-2.881.318-5.808-1.326-8.323-2.506-2.755-1.292-5.707-2.773-8.823-2.77-3.442,0-5.743,2.155-7.687,4.767a31.979,31.979,0,0,0-4.768,9.88c-2.212,7.316-2.561,15.124-2.446,22.719.026,1.715.08,3.429.145,5.142.07,1.842,2.942,1.851,2.871,0" transform="translate(-1776.028 -119.772)"/><path class="d" d="M2460.281,536.037a16.271,16.271,0,0,0,8.942,2.571c2.971,0,5.915-.59,8.891-.45,3.3.156,6.479,1.192,9.814,1.2a13.914,13.914,0,0,0,4.839-.657c1.357-.517,2.244-1.617,3.4-2.436,1.495-1.06.062-3.551-1.449-2.479-.948.672-1.784,1.759-2.865,2.21a11.527,11.527,0,0,1-4.568.481c-3.1-.094-6.082-1.04-9.17-1.186-2.674-.127-5.323.335-7.988.431a13.984,13.984,0,0,1-8.4-2.161c-1.559-1-3,1.483-1.449,2.479" transform="translate(-1871.112 -405.717)"/><path class="d" d="M2499.812,556.525c3.682-.015,7.245,1.3,10.943,1.13,4.674-.211,8.08-2.9,10.082-7.055.8-1.657-1.677-3.115-2.479-1.449a10.073,10.073,0,0,1-3.871,4.641,9.09,9.09,0,0,1-4.743,1c-3.343-.07-6.585-1.153-9.932-1.139a1.436,1.436,0,0,0,0,2.871" transform="translate(-1900.635 -417.197)"/><path class="d" d="M2263.815,2207.04c-2.414,0-4.828-.032-7.242-.048l-19.356-.13-28.752-.193-35.1-.234-38.692-.257-39.592-.26-37.489-.242q-16.207-.1-32.415-.2-12.322-.076-24.645-.147-7.019-.04-14.038-.07-.752,0-1.5,0a1.436,1.436,0,0,0,0,2.871c3.684,0,7.368.028,11.052.048q11.165.06,22.33.13,15.456.094,30.912.193,18.214.115,36.427.234l39.2.257,39.28.26,36.352.242,30.459.2,21.869.147c3.479.023,6.964.111,10.443.07.164,0,.328,0,.492,0a1.437,1.437,0,0,0,0-2.871" transform="translate(-1508.998 -1677.609)"/><path class="d" d="M3508.919,2212.468h-.03v2.871c11.442-.066,22.911-.011,34.355-.016q41.463-.018,82.926-.032,50.438-.017,100.875-.025,44.1-.006,88.2,0c14.96.006,29.948.1,44.905.058.346,0,.7,0,1.046.012,6.79.177,6.745-2.7,0-2.871-3.6-.094-7.323-.035-10.931-.042q-13.188-.022-26.376-.024-42.223-.022-84.447-.01-50.483.005-100.965.023-43.43.014-86.861.033c-14,.006-28.146-.151-42.133.02-.2,0-.4,0-.6,0-6.815.039-6.842,2.859,0,2.871h.03c6.824,0,6.835-2.87,0-2.871" transform="translate(-2665.433 -1683.037)"/><path class="d" d="M2371.424,342.71a12.771,12.771,0,0,1,.622,4.357c.076,1.945.076,3.895.233,5.836.193,2.385.485,5.991,3.2,6.832a31.43,31.43,0,0,0,7.444.83c3.339.179,6.685.26,10.028.312q3.9.061,7.8.06a1.436,1.436,0,0,0,0-2.871c-5.189,0-10.381-.055-15.566-.266a65.317,65.317,0,0,1-7.872-.6c-.361-.062-.711-.153-1.067-.232-.229-.051-.316-.105-.086-.015-.257-.1.089.229-.024-.024a11.5,11.5,0,0,1-.971-3.884c-.174-2.034-.166-4.078-.25-6.116a14.882,14.882,0,0,0-.719-4.98c-.693-1.685-3.472-.947-2.769.763" transform="translate(-1803.936 -259.405)"/><path class="d" d="M2346.73,333.024c-.366-1.368-2.329-1.561-3.469-1.83a28.452,28.452,0,0,1-5.865-1.772c-1.657-.8-3.115,1.676-1.449,2.479a26.436,26.436,0,0,0,5.265,1.755c.757.185,1.519.352,2.275.544.261.066.519.153.781.213.194.044.244.063.232.074-.166.154-.677-1.222-.538-.7a1.437,1.437,0,0,0,2.769-.763" transform="translate(-1776.473 -250.483)"/><path class="d" d="M2373.446,337.888a95.067,95.067,0,0,1,16.5-1.669,47.569,47.569,0,0,1,14.875,1.669c1.767.555,2.523-2.216.763-2.769-5-1.572-10.427-1.841-15.638-1.772a99.343,99.343,0,0,0-17.26,1.772c-1.813.346-1.045,3.114.763,2.769" transform="translate(-1804.192 -253.581)"/><path class="d" d="M2322.423,376.2c-2.167,1.717-1.688,5.994-1.216,8.329a6.333,6.333,0,0,0,1.593,3.448,2.448,2.448,0,0,0,3.562-.339c1.24-1.365-.784-3.4-2.03-2.03-.135.149-.212.274-.263.242a3.473,3.473,0,0,1,.652,0c-.067,0-.04.026-.062-.069.052.23-.128-.22-.166-.3a9.142,9.142,0,0,1-.649-2.489,12.166,12.166,0,0,1-.03-3.11,5.238,5.238,0,0,1,.255-1.1,1.025,1.025,0,0,1,.384-.551c1.448-1.147-.6-3.166-2.03-2.03" transform="translate(-1765.514 -285.929)"/><path class="d" d="M2492.752,341.671c-.493,3.005-.361,6.117-.665,9.146a24.864,24.864,0,0,1-.91,4.991,5.3,5.3,0,0,1-.757,1.637c.04-.052-.4.368-.23.244-.073.052-.367.145-.119.075-.3.084.219.012-.129.025-1.842.067-1.851,2.939,0,2.871,3.718-.136,4.42-5.208,4.8-8.019.275-2.039.417-4.09.526-6.143.044-.833.082-1.666.13-2.5.019-.33.039-.66.066-.989q.019-.237.043-.474c.04-.395-.027.146.013-.1.3-1.808-2.47-2.585-2.769-.763" transform="translate(-1893.129 -259.13)"/><path class="d" d="M2604.984,346.895c0,3.026-.014,6.056-.217,9.077a22.624,22.624,0,0,1-.487,3.873c-.061.247-.149.484-.216.728.022-.081-.215.121.022,0,.555-.283.275-.151-.117-.07a19.992,19.992,0,0,1-2.238.253c-1.269.1-2.541.178-3.813.245-2.943.154-5.889.256-8.835.343-2.193.064-4.386.123-6.58.156a1.436,1.436,0,0,0,0,2.871c5.139-.078,10.282-.231,15.414-.5a42.039,42.039,0,0,0,6.863-.61c2.344-.521,2.479-3.418,2.692-5.379a101.6,101.6,0,0,0,.381-10.987,1.437,1.437,0,0,0-2.871,0" transform="translate(-1963.542 -262.839)"/><path class="d" d="M2561.244,340.359a2.39,2.39,0,0,1,.095.576c.035.326.062.652.086.979.065.86.11,1.721.162,2.582.129,2.151.286,4.3.588,6.434.423,2.989,1.3,8.035,5.181,8.157,1.848.058,1.846-2.813,0-2.871a.612.612,0,0,1-.339-.089,1.424,1.424,0,0,1-.426-.389,5.868,5.868,0,0,1-.755-1.509,23.362,23.362,0,0,1-1.025-5.185c-.333-3.105-.13-6.392-.8-9.45-.395-1.8-3.163-1.041-2.769.763" transform="translate(-1948.395 -257.558)"/><path class="d" d="M2563.134,336.315a41.1,41.1,0,0,1,15.168-1.347c4.122.309,8.641.933,12.369,2.838,1.642.839,3.1-1.637,1.449-2.479-4.1-2.1-8.917-2.832-13.457-3.2a43.57,43.57,0,0,0-16.293,1.422c-1.76.544-1.009,3.316.764,2.769" transform="translate(-1948.519 -252.511)"/><path class="d" d="M2507.846,340.446c4.292-1.285,8.473-.924,12.844-.452,1.835.2,1.821-2.674,0-2.871-4.627-.5-9.07-.8-13.607.554-1.766.529-1.014,3.3.763,2.769" transform="translate(-1906.457 -256.138)"/><path class="d" d="M2514.263,352.251c-.036,7.114-1.826,13.946-3.626,20.775-.466,1.77-1.22,3.849-.981,5.706.287,2.227,3,2.514,4.811,2.7a83.884,83.884,0,0,0,8.911-.058,1.436,1.436,0,0,0,0-2.871c-2.36.013-4.714.228-7.077.166a13.728,13.728,0,0,1-3.436-.405c-.187-.054-.382-.156-.568-.2-.289-.061-.137-.1.06.111.238.259.093.139.117.137s0,.183.012-.129a28.564,28.564,0,0,1,1.186-5.394c.769-2.881,1.529-5.765,2.123-8.688a61.079,61.079,0,0,0,1.339-11.85,1.436,1.436,0,0,0-2.871,0" transform="translate(-1909.144 -266.914)"/><path class="d" d="M2690.779,340.694c-2.817.52-5.886.128-8.607,1.133-1.719.635-.976,3.411.763,2.769,2.7-1,5.8-.615,8.608-1.133,1.814-.335,1.046-3.1-.763-2.769" transform="translate(-2039.677 -259.156)"/><path class="d" d="M2620.563,366.839c.007,1.533-.373,3.029-.4,4.56-.035,1.848,2.836,1.848,2.871,0,.03-1.531.41-3.026.4-4.56a1.436,1.436,0,0,0-2.871,0" transform="translate(-1993.243 -278.011)"/><path class="d" d="M358.494,2222.565q-83.855-.564-167.713-1.014-50.746-.26-101.493-.406-26.749-.063-53.5-.018c-7.566.023-15.133.056-22.7.158q-4.541.061-9.082.121c-.334,0-.668,0-1,0-4.008,0-4.015,2.871,0,2.871,2.887,0,5.772-.061,8.658-.1,6.742-.1,13.487-.138,20.232-.164q24.519-.1,49.039-.013,47.519.091,95.036.35,79.113.386,158.223.926l24.3.161c4.01.027,4.011-2.844,0-2.871" transform="translate(0 -1689.664)"/><path class="d" d="M1499.266,2282.74c-.294,1.139.206,2.063.346,3.162,0,0,0,.008,0,.013v-4.075a4.465,4.465,0,0,0-.348.9" transform="translate(-1140.473 -1735.871)"/><path class="e" d="M1518.81,1981.721a40.581,40.581,0,0,0,9.563-2.048,1.28,1.28,0,0,1,.886-.021c.59-.467,1.246-.867,1.791-1.246,2.129-1.482,4.334-2.851,6.571-4.164a128.534,128.534,0,0,1,13.165-7.013c4.545-2,9.223-3.678,13.829-5.528,1.717-.689,2.457,2.089.763,2.769-4.887,1.963-9.872,3.706-14.655,5.92a136.142,136.142,0,0,0-14.121,7.814c-1.836,1.132-3.684,2.3-5.408,3.594-.139.1-.364.387-.523.495a4.37,4.37,0,0,0,.951.386c2.537.6,5.525-.12,8.011-.653,6.748-1.447,13.4-3.466,20-5.48,7.144-2.181,14.344-4.426,21.838-4.954a54.652,54.652,0,0,1,22.781,3.729,15.217,15.217,0,0,1,1.509-5.314c.863-1.637,3.34-.184,2.479,1.449a12.24,12.24,0,0,0-.968,7.707c.438,2.138,1.573,3.986,3.983,3.858,3.513-.187,5.974-2.29,8.318-4.648,2.689-2.7,4.783-5.81,4.477-9.775-.193-2.507-2-4.455-2.649-6.837a1.428,1.428,0,0,1-.116-.5,1.4,1.4,0,0,1,.085-.737c.875-5.28,1.683-10.571,2.474-15.864,2.886-19.3,5.439-38.755,10.192-57.711-2.8-1.422-6.305-1.886-9.3-2.433a97.318,97.318,0,0,0-16.433-1.82c-2.875-.034-5.754,0-8.624.171a34.3,34.3,0,0,0-6.21.77c.14,5.429.326,10.857.527,16.284.4,10.747.781,21.492,1.048,32.243.178,7.176.12,15.543-6.448,19.962a1.384,1.384,0,0,1-.435.286,1.5,1.5,0,0,1-.444.189,166.986,166.986,0,0,1-23.584,8.167c-5.965,1.544-11.77,3.5-17.6,5.485-3.566,1.213-7.115,2.495-10.711,3.619-3.321,1.039-6.689,1.92-10.022,2.921a103.964,103.964,0,0,0-10.084,3.448,11.873,11.873,0,0,0-3.632,2.126,3.02,3.02,0,0,0-1.006,1.487,3.886,3.886,0,0,0,.238,1.512,8.265,8.265,0,0,0,2.746.511,30.361,30.361,0,0,0,4.751-.153" transform="translate(-1149.513 -1432.219)"/><path class="d" d="M1520.034,2290.219a3.568,3.568,0,0,1,1.583-2.475,1.278,1.278,0,0,0-.886.021,40.577,40.577,0,0,1-9.563,2.048,30.406,30.406,0,0,1-4.751.153,8.27,8.27,0,0,1-2.746-.511,6.386,6.386,0,0,1,.21.886c.232,1.824-2.619,1.808-2.868.019a1.186,1.186,0,0,0,.417,1c2.459,1.9,6.185,1.633,9.106,1.386a45.869,45.869,0,0,0,9.545-1.741,2.93,2.93,0,0,1-.047-.782" transform="translate(-1141.87 -1740.311)"/><path class="d" d="M1831.453,2174.294a1.505,1.505,0,0,0,.444-.189l-.444.189" transform="translate(-1393.248 -1653.914)"/><path class="d" d="M1829.137,1947.766c6.568-4.419,6.627-12.786,6.448-19.962-.267-10.751-.651-21.5-1.048-32.243-.2-5.427-.387-10.855-.527-16.284-.364.091-.726.191-1.083.307-1.65.536-2.411-1.853-1.073-2.631a1.264,1.264,0,0,0-.745,1.247c.244,9.936.66,19.866,1.017,29.8q.285,7.928.494,15.858a96.765,96.765,0,0,1-.008,11.5c-.381,4.025-1.776,8-5.359,10.215,1.5-.645,2.827,1.262,1.884,2.193" transform="translate(-1390.053 -1427.861)"/><path class="d" d="M1833.745,2172.91c-.143.1-.285.193-.435.286a1.389,1.389,0,0,0,.435-.286" transform="translate(-1394.661 -1653.005)"/><path class="d" d="M1501.428,2195.047a1.486,1.486,0,0,1,2.03,0,1.361,1.361,0,0,0,.21.129,3.887,3.887,0,0,1-.238-1.512,3.019,3.019,0,0,1,1.006-1.486,11.865,11.865,0,0,1,3.632-2.126,103.866,103.866,0,0,1,10.084-3.448c3.333-1,6.7-1.882,10.022-2.92,3.595-1.124,7.145-2.406,10.711-3.62,5.834-1.984,11.638-3.94,17.6-5.485a166.939,166.939,0,0,0,23.584-8.167,1.46,1.46,0,0,1-1-2.668,160.805,160.805,0,0,1-22.842,7.937c-2.2.572-4.4,1.125-6.576,1.789-3.769,1.151-7.493,2.453-11.223,3.722-3.668,1.247-7.319,2.567-11.017,3.723-3.384,1.058-6.816,1.954-10.21,2.977a83.814,83.814,0,0,0-11.358,4.024,11.213,11.213,0,0,0-4.088,2.946,6.686,6.686,0,0,0-.746,1.139v4.075a.045.045,0,0,0,0,.007,1.54,1.54,0,0,1,.417-1.034" transform="translate(-1141.869 -1646.032)"/><path class="d" d="M1503.883,2294.312a6.412,6.412,0,0,0-.21-.886,1.363,1.363,0,0,1-.211-.129,1.485,1.485,0,0,0-2.03,0,1.541,1.541,0,0,0-.417,1.034c.249,1.789,3.1,1.805,2.868-.019" transform="translate(-1141.873 -1744.282)"/><path class="d" d="M1826.107,2166c.148-.063.3-.125.444-.189.15-.093.291-.189.435-.286.943-.931-.381-2.838-1.884-2.193a1.46,1.46,0,0,0,1,2.668" transform="translate(-1387.901 -1645.617)"/><path class="d" d="M1592.272,2298.279c-.011.235.068.248.182.172l-.074-.033c.067.029-.112-.046-.108-.139" transform="translate(-1211.294 -1748.378)"/><path class="d" d="M1657.235,2226.21a54.645,54.645,0,0,0-22.781-3.729c-7.494.529-14.695,2.773-21.838,4.954-6.594,2.013-13.248,4.033-20,5.48-2.486.533-5.474,1.254-8.011.653a4.358,4.358,0,0,1-.951-.386c-.113.076-.193.063-.182-.172,0,.093.175.167.108.139l.074.033c.158-.107.384-.39.523-.495,1.725-1.3,3.573-2.462,5.408-3.594a136.182,136.182,0,0,1,14.121-7.814c4.783-2.214,9.767-3.958,14.655-5.92,1.693-.68.954-3.458-.763-2.769-4.607,1.85-9.284,3.528-13.83,5.528a128.62,128.62,0,0,0-13.165,7.013c-2.237,1.313-4.442,2.682-6.571,4.164-.545.379-1.2.78-1.791,1.247a1.52,1.52,0,0,1-.123,2.79q-.7.25-1.413.468c.48,2.387,4.045,2.838,6.046,2.8a42.073,42.073,0,0,0,9.278-1.533c3.21-.808,6.418-1.649,9.6-2.553,8.01-2.275,15.912-5.211,24.146-6.6,9.411-1.584,18.583-.014,27.409,3.337a16.294,16.294,0,0,1,.046-3.038" transform="translate(-1202.498 -1683.108)"/><path class="d" d="M1582.071,2287.964a3.567,3.567,0,0,0-1.583,2.475,2.94,2.94,0,0,0,.047.782q.713-.219,1.413-.468a1.52,1.52,0,0,0,.123-2.79" transform="translate(-1202.324 -1740.531)"/><path class="d" d="M1917.549,2210.879c.653,2.382,2.455,4.331,2.649,6.837.307,3.965-1.788,7.071-4.477,9.775-2.344,2.357-4.8,4.461-8.317,4.648-2.41.128-3.545-1.72-3.983-3.858a12.238,12.238,0,0,1,.968-7.708c.861-1.633-1.616-3.086-2.479-1.449a15.227,15.227,0,0,0-1.509,5.314q.89.329,1.773.678c1.7.675.954,3.45-.763,2.769q-.527-.209-1.055-.408c.275,3.359,1.714,6.426,5,7.316,3.616.98,7.884-1.033,10.51-3.423,3.088-2.809,6.483-6.38,7.061-10.685a11.765,11.765,0,0,0-.722-6.464,31.429,31.429,0,0,1-1.876-4.068c-.036.215-.07.43-.106.645-.25,1.5-2.176,1.236-2.673.081" transform="translate(-1445.664 -1681.338)"/><path class="d" d="M1971.685,2208.745a1.626,1.626,0,0,1,.02-.343c.022-.131.043-.263.064-.395a1.409,1.409,0,0,0-.085.737" transform="translate(-1499.915 -1679.705)"/><path class="d" d="M1902.013,2270.539q-.882-.35-1.773-.678a16.307,16.307,0,0,0-.046,3.038q.529.2,1.055.408c1.718.682,2.463-2.094.763-2.769" transform="translate(-1445.503 -1726.759)"/><path class="d" d="M1971.754,2211.211c-.009-.042-.015-.083-.02-.124a1.429,1.429,0,0,0,.116.5c-.035-.125-.068-.251-.1-.378" transform="translate(-1499.964 -1682.048)"/><path class="d" d="M1985.69,1896.623c-.3-.19-.615-.362-.935-.525-4.753,18.955-7.307,38.409-10.193,57.711-.791,5.293-1.6,10.584-2.474,15.864.463-1.135,2.384-1.385,2.7.1.031.141.067.279.106.416,3.229-19.538,5.589-39.221,9.39-58.663,1.033-5.282,2.179-10.543,3.511-15.758a1.355,1.355,0,0,0-.13-1.054c.566,1.123-.662,2.743-1.979,1.912" transform="translate(-1500.234 -1441.37)"/><path class="d" d="M1971.813,2205.04c-.022.132-.043.263-.064.395a1.6,1.6,0,0,0-.02.342c.006.041.011.082.02.124.028.128.061.253.1.378.5,1.155,2.423,1.422,2.673-.081.036-.215.07-.43.106-.645-.039-.137-.075-.275-.106-.416-.319-1.482-2.241-1.232-2.7-.1" transform="translate(-1499.958 -1676.738)"/><path class="d" d="M1848.61,1873.133c.009.359.02.718.029,1.077a34.318,34.318,0,0,1,6.21-.77c2.87-.172,5.749-.2,8.624-.171a97.337,97.337,0,0,1,16.433,1.82c2.992.547,6.495,1.011,9.3,2.433.092-.365.182-.731.276-1.1a1.442,1.442,0,0,1,2.638-.291,1.434,1.434,0,0,0-.529-.568c-2.626-1.657-6-2.27-8.99-2.877-4.313-.874-8.68-1.477-13.044-2.03a79.816,79.816,0,0,0-13.687-.146,35.016,35.016,0,0,0-9.074,1.235,1.6,1.6,0,0,0-.309.138,1.466,1.466,0,0,1,2.127,1.247" transform="translate(-1404.682 -1422.794)"/><path class="d" d="M1845.376,1879.143c.357-.116.719-.217,1.083-.307-.009-.359-.02-.718-.029-1.077a1.466,1.466,0,0,0-2.127-1.247c-1.338.778-.577,3.167,1.073,2.631" transform="translate(-1402.502 -1427.42)"/><path class="d" d="M2025.3,1892.679c-.093.365-.184.731-.276,1.1.321.163.635.335.936.525,1.317.831,2.544-.789,1.979-1.912a1.442,1.442,0,0,0-2.638.291" transform="translate(-1540.508 -1439.048)"/><path class="d" d="M3328.764,1797.934c.009-.016.02-.036.035-.06l.858-.66c.223-.09-.215-.016-.351-.009s-.244.019-.365.032c-.042,0-.084.012-.126.016-.005.157-.013.315-.019.472a.869.869,0,0,1-.031.209" transform="translate(-2532.302 -1367.167)"/><path class="d" d="M3071.132,1688.442c-.074.132-.465.284-.041.113.025-.01.153-.07.228-.106-.049.016-.063.02-.007,0,.094-.04.067-.025.007,0l.215-.077c-.087-.345-.17-.692-.258-1.036q-.073.553-.145,1.106" transform="translate(-2336.134 -1283.613)"/><path class="d" d="M3072.521,1691.893c-.056.024-.042.021.006,0s.087-.044-.006,0" transform="translate(-2337.343 -1287.061)"/><path class="d" d="M3313.857,1636.092c.005.6.037,1.21.081,1.816q.92-.214,1.84-.432a1.253,1.253,0,0,0,.963-.861c-.006-.175-.011-.349-.013-.524a1.436,1.436,0,0,0-2.871,0" transform="translate(-2520.962 -1243.575)"/><path class="d" d="M3329.457,1809.294h.016l.018,0c.413-.083-.4.011-.034,0" transform="translate(-2532.756 -1376.361)"/><path class="d" d="M3064.072,1648.2l-.215.077c-.075.037-.2.1-.228.106-.424.171-.034.019.041-.113q.072-.553.145-1.106c.088.345.171.691.258,1.036l.213-.076a25.877,25.877,0,0,1,2.775-.7c3.015-.633,6.068-1.092,9.112-1.562,9.479-1.464,18.97-2.851,28.407-4.575,5.715-1.044,11.41-2.2,17.069-3.516-.044-.606-.076-1.212-.081-1.816a1.436,1.436,0,0,1,2.871,0c0,.174.007.349.013.523a1.486,1.486,0,0,0-1.727-1.908c-11.7,2.794-23.552,4.868-35.434,6.711-4.594.713-9.2,1.384-13.788,2.11-2.987.472-6.012.9-8.943,1.664a9.619,9.619,0,0,0-2.445.882c-1.677.982-.888,2.688-.495,4.259q1.986,7.93,3.709,15.922c.781,3.628,1.436,7.295,2.162,10.944h2.993c-1.958-9.665-4-19.3-6.411-28.865" transform="translate(-2328.671 -1243.438)"/><path class="d" d="M3281.759,1643.55q-.919.22-1.84.432c.17,2.347.579,4.7.895,7.014.3,2.192.539,4.383.765,6.582.564,5.489,1.2,10.971,1.623,16.473.1,1.353.2,2.708.241,4.064.016.5.028,1,.016,1.506,0,.038,0,.075,0,.113.042-.005.084-.012.126-.017.122-.012.243-.025.365-.031s.574-.081.351.009l-.858.66c-.015.024-.026.044-.035.061-.02.067-.036.068,0,0a.857.857,0,0,0,.031-.209c.006-.157.014-.315.019-.472-.339.04-.677.093-1.011.16-.842.167-1.672.394-2.5.611-3.6.94-7.2,1.872-10.8,2.768h10.549c.011-.452.024-.9.034-1.355.04-1.848,2.911-1.848,2.871,0-.006.3-.015.59-.022.886l.291-.068c.265-.058.533-.1.8-.156h-.016c-.366.007.448-.088.034-.005l-.018,0c.1,0,.209-.025.315-.024a2,2,0,0,0,2.3-1.983,20.493,20.493,0,0,0,.015-3.15c-.159-3.565-.521-7.124-.878-10.674q-.986-9.815-2.235-19.583c-.188-1.482-.4-2.98-.452-4.477a1.251,1.251,0,0,1-.963.861" transform="translate(-2486.943 -1249.648)"/><path class="d" d="M3319.344,1810.815c0-.156.008-.313.011-.469-.624.144-1.244.306-1.863.469Z" transform="translate(-2523.728 -1377.19)"/><path class="d" d="M3313.263,1802.236c-.01.452-.023.9-.034,1.355h1.02c.619-.163,1.239-.325,1.863-.469.007-.3.015-.591.022-.886.04-1.848-2.831-1.848-2.871,0" transform="translate(-2520.485 -1369.967)"/><path class="e" d="M3134.945,1871.02a299.476,299.476,0,0,1,3.8,39.071,1.135,1.135,0,0,1-.178,1.087,1.211,1.211,0,0,1-.411.4,19.9,19.9,0,0,0-4.938,7.749,29.493,29.493,0,0,0-2.1,8.815,12.874,12.874,0,0,0,.177,3.557,3.634,3.634,0,0,0,1.062,2.137.875.875,0,0,0,.331.207c-.087-.04.38.119.467.136a4.639,4.639,0,0,0,.977-.033,8.466,8.466,0,0,0,4.316-2.347c2.772-2.776,3.445-7.1,4.023-10.81.285-1.823,3.051-1.044,2.769.763a44.134,44.134,0,0,1-1.021,4.982c5.5-.542,11.068-.626,16.5-1.686.049-.01.1-.016.145-.021a1.607,1.607,0,0,1,.237-.03c6.111-.294,12.416-1.566,18.374.473,1.914.655,3.763,1.532,5.625,2.318a157.864,157.864,0,0,0,17.372,6.494,27.172,27.172,0,0,0,7.46,1.393c.281,0,.563-.009.842-.036a.961.961,0,0,0,.3-.047,5.233,5.233,0,0,0,.6-.163.357.357,0,0,1,.065-.019c.018-.013.052-.034.11-.068l.031-.017c0-.026,0-.054.008-.086l-.031-.116c-.063-.166-.093-.349-.153-.517a4.565,4.565,0,0,0-.67-1.21,42.426,42.426,0,0,0-4.233-3.648q-3.679-3.037-7.485-5.915c-2.79-2.1-5.628-4.153-8.577-6.027a27.064,27.064,0,0,0-6.776-3.488,1.437,1.437,0,0,1,.763-2.769c3.079.88,5.919,2.751,8.567,4.493,3.518,2.313,6.9,4.837,10.221,7.419q3.642,2.83,7.168,5.805l.451.382a1.639,1.639,0,0,1,.293.031,25.74,25.74,0,0,1,4.812,1.94c2.463,1.063,4.94,2.1,7.475,2.983a26.137,26.137,0,0,0,6.526,1.636,4.591,4.591,0,0,0,2.168-.186,1.533,1.533,0,0,0,.37-.255c.031-.048.082-.129.115-.188.023-.082.078-.266.083-.31.01-.077-.009-.435,0-.443-.012-.047-.029-.1-.041-.131a3.1,3.1,0,0,0-.16-.3,7.22,7.22,0,0,0-1.284-1.519,34.03,34.03,0,0,0-5.216-3.956,132.981,132.981,0,0,0-15.411-8.431,80.629,80.629,0,0,0-12.935-5.268,1.437,1.437,0,0,1,.763-2.768c5.664,1.565,11.129,4.288,16.368,6.895a113.745,113.745,0,0,1,13.368,7.541,1.209,1.209,0,0,1,1.075.21,13.778,13.778,0,0,0,1.759,1,19.747,19.747,0,0,0,5.734,2.044,4.973,4.973,0,0,0,1.161.056c.07-.006.442-.089.315-.043.131-.047.063.019.008-.1a3.917,3.917,0,0,0-.469-.723c-1.732-2.1-4.4-3.547-6.687-4.946-2.9-1.775-5.821-3.52-8.881-5-9.839-4.765-20.592-6.959-31.054-9.89a132.625,132.625,0,0,1-13.63-4.361,20.421,20.421,0,0,1-4.212-2.066,12.682,12.682,0,0,1-2.82-2.65c-1.064-1.412-1.169-3.129-1.423-4.826-1.97-13.152-1.893-26.521-1.613-39.788.3-14.143,1.3-28.262,1.654-42.4-3.669.961-7.343,1.907-11.027,2.81-8.6,2.107-17.225,4.073-25.865,5.989-2.492.553-5,1.033-7.482,1.638-.277.068-.567.14-.865.211,1.308,5.325,2.675,10.635,4.021,15.95,2.6,10.256,5.038,20.552,6.794,30.99" transform="translate(-2376.631 -1379.537)"/><path class="d" d="M3091.405,1823.094a4.46,4.46,0,0,0,2.271.546c-.088-.358-.178-.716-.265-1.075-.437-1.8,2.332-2.558,2.769-.763.115.474.234.948.351,1.422.3-.071.587-.143.865-.211,2.479-.605,4.99-1.085,7.482-1.638,8.639-1.917,17.269-3.883,25.865-5.99,3.685-.9,7.357-1.849,11.027-2.81l.007-.269h-10.55c-.561.139-1.121.28-1.682.417-9.773,2.39-19.589,4.6-29.415,6.763-1.118.246-2.238.448-3.35.722a11.314,11.314,0,0,1-3.205.539,2.522,2.522,0,0,1-.778-.195c.011.021.024.041.034.063.121.283-.091-.083-.067-.074l.033.012a1.576,1.576,0,0,1-.1-.183.536.536,0,0,0-.03-.069c.082.27-.017-.023,0,0l-.022-.071a58.659,58.659,0,0,1-1.362-5.739q-.22-1.092-.442-2.183h-2.993c.476,2.393.982,4.778,1.576,7.138.337,1.338.695,2.9,1.979,3.649" transform="translate(-2349.031 -1378.682)"/><path class="d" d="M3108.44,1846.795c-.01-.022-.022-.042-.034-.063l-.033-.012c-.024-.008.188.358.067.074" transform="translate(-2364.642 -1404.862)"/><path class="d" d="M3107.983,1845.712c-.016-.023.082.27,0,0" transform="translate(-2364.346 -1404.094)"/><path class="d" d="M3183.181,2221.958a1.572,1.572,0,0,1-.23.241c-.062.052-.12.108-.181.161a1.213,1.213,0,0,0,.411-.4" transform="translate(-2421.24 -1690.318)"/><path class="d" d="M3129.674,1943.946a299.476,299.476,0,0,0-3.8-39.071c-1.755-10.439-4.2-20.734-6.794-30.99-1.346-5.315-2.714-10.625-4.021-15.95a12.485,12.485,0,0,1-2.855.416c2.413,9.843,5.057,19.629,7.329,29.506a282.549,282.549,0,0,1,5.667,32.975c.82,7.579,1.32,15.19,1.6,22.808.146-.135.293-.267.444-.4a1.545,1.545,0,0,1,2.439.7" transform="translate(-2367.555 -1413.393)"/><path class="d" d="M3113.714,1848.735c-.437-1.795-3.206-1.035-2.769.763.087.358.177.717.265,1.075a12.481,12.481,0,0,0,2.854-.416c-.117-.474-.236-.948-.351-1.422" transform="translate(-2366.565 -1405.615)"/><path class="d" d="M3159.93,2317.536l.035.015-.035-.015" transform="translate(-2403.865 -1763.027)"/><path class="d" d="M3184.666,2217.413c0,.1.009.209.012.313a1.351,1.351,0,0,1-.19.774,1.136,1.136,0,0,0,.178-1.087" transform="translate(-2422.547 -1686.86)"/><path class="d" d="M3155.34,2233.292c.62-.075,1.242-.14,1.864-.2a44.293,44.293,0,0,0,1.021-4.982c.282-1.808-2.484-2.586-2.769-.763-.579,3.705-1.251,8.034-4.023,10.811a8.465,8.465,0,0,1-4.316,2.346,4.587,4.587,0,0,1-.977.032c-.087-.017-.554-.176-.467-.136l.035.015-.035-.015a.877.877,0,0,1-.331-.207,3.637,3.637,0,0,1-1.061-2.137,12.875,12.875,0,0,1-.177-3.558,29.477,29.477,0,0,1,2.1-8.815,19.893,19.893,0,0,1,4.938-7.75,1.487,1.487,0,0,1-2.27-1.176c-.007-.206-.016-.413-.023-.619a22.751,22.751,0,0,0-5.13,8.082,32.29,32.29,0,0,0-2.482,10.278c-.159,2.572.037,5.783,2.031,7.68,2.418,2.3,6.238.992,8.613-.675a12.692,12.692,0,0,0,4.282-5.431c-.272.031-.544.06-.816.093-1.833.222-1.811-2.652,0-2.871" transform="translate(-2389.607 -1685.889)"/><path class="d" d="M3175.477,2215.519c.061-.053.119-.109.181-.161a1.57,1.57,0,0,0,.23-.241,1.355,1.355,0,0,0,.19-.774c0-.1-.008-.209-.012-.313a1.545,1.545,0,0,0-2.439-.7c-.151.129-.3.261-.444.4.008.206.017.413.024.619a1.487,1.487,0,0,0,2.27,1.176" transform="translate(-2413.947 -1683.477)"/><path class="d" d="M3327.989,2241.427l-.451-.382q-3.517-2.984-7.169-5.805c-3.324-2.583-6.7-5.106-10.22-7.419-2.648-1.741-5.488-3.613-8.567-4.493a1.437,1.437,0,0,0-.763,2.769,27.06,27.06,0,0,1,6.776,3.488c2.949,1.875,5.788,3.924,8.577,6.027q3.808,2.873,7.485,5.915a42.48,42.48,0,0,1,4.233,3.648,4.572,4.572,0,0,1,.67,1.21c.06.167.09.351.153.517l.031.116c0,.032-.006.061-.008.086.03-.017.054-.03.073-.038.035-.031.071-.061.1-.094l-.08.139q-.12.283-.1-.007l-.031.017c-.058.035-.091.056-.11.068.03,0-.058.04,0,0a.407.407,0,0,0-.064.019,5.206,5.206,0,0,1-.6.163.948.948,0,0,1-.3.046c-.28.027-.561.036-.842.036a27.159,27.159,0,0,1-7.46-1.393,157.807,157.807,0,0,1-17.372-6.495c-1.862-.786-3.711-1.663-5.625-2.317-5.958-2.039-12.263-.767-18.374-.473a1.61,1.61,0,0,0-.237.031c1.7-.182,2.382,2.446.619,2.789-.08.016-.159.029-.239.044,5.793-.295,11.826-1.554,17.468.378,1.719.589,3.256,1.317,4.9,2.011a158.174,158.174,0,0,0,18.566,6.934c2.875.809,14.147,3.665,12.421-2.954-.023-.087-.05-.17-.076-.255a17.754,17.754,0,0,0-3.852-1.528c-1.711-.344-1.119-2.827.47-2.8" transform="translate(-2493.466 -1691.312)"/><path class="d" d="M3491.116,2322.694c-.016.014-.03.029-.046.042.054.015.162-.094.046-.042" transform="translate(-2655.774 -1766.94)"/><path class="d" d="M3490.309,2323.256c-.058.04.03,0,0,0" transform="translate(-2655.18 -1767.378)"/><path class="d" d="M3491.045,2322.483l.08-.139c-.033.033-.069.064-.1.094.115-.052.008.057-.046.042.016-.013.031-.029.046-.042-.018.008-.042.021-.073.038q-.023.29.1.007" transform="translate(-2655.679 -1766.685)"/><path class="d" d="M3578.264,2324.675a.425.425,0,0,1-.041.048c-.035.055-.042.067.041-.048" transform="translate(-2722.056 -1768.458)"/><path class="d" d="M3459.563,2244.383a1.545,1.545,0,0,1,.374-2.689,113.73,113.73,0,0,0-13.368-7.541c-5.24-2.607-10.7-5.33-16.368-6.895a1.437,1.437,0,0,0-.763,2.768,80.619,80.619,0,0,1,12.935,5.268,132.886,132.886,0,0,1,15.411,8.431,34.01,34.01,0,0,1,5.216,3.956,7.2,7.2,0,0,1,1.284,1.519,3.054,3.054,0,0,1,.16.3c-.023-.064-.03-.077.04.084-.012-.028-.027-.056-.04-.084.012.035.029.083.041.131,0,0,.007.016.014.063,0-.019-.008-.041-.014-.063-.011.008.008.365,0,.443-.006.043-.061.227-.083.31a.432.432,0,0,0,.026-.053c-.042.119-.042.11-.026.053-.033.059-.085.14-.115.188a.424.424,0,0,0,.041-.048c-.083.115-.076.1-.041.048a1.52,1.52,0,0,1-.37.255,4.584,4.584,0,0,1-2.168.186,26.127,26.127,0,0,1-6.526-1.636c-2.535-.882-5.012-1.921-7.475-2.983a25.736,25.736,0,0,0-4.811-1.94,1.64,1.64,0,0,0-.293-.031c1.461,1.234,2.8,2.41,3.382,4.328.091.041.18.083.273.123,2.437,1.052,4.882,2.091,7.378,2.995a33.4,33.4,0,0,0,7.442,1.955c1.822.213,4.011.129,5.314-1.355,1.479-1.685,1.144-3.426.119-4.99-.749-.214-1.474-.481-2.14-.737a22.448,22.448,0,0,1-4.845-2.354" transform="translate(-2608.116 -1694.305)"/><path class="d" d="M3578.914,2320.257c.013.028.028.056.04.084-.07-.161-.063-.148-.04-.084" transform="translate(-2722.588 -1765.063)"/><path class="d" d="M3579.136,2320.945c.006.022.011.044.014.063-.007-.047-.011-.065-.014-.063" transform="translate(-2722.769 -1765.62)"/><path class="d" d="M3578.779,2323.866a.416.416,0,0,1-.026.054c-.016.057-.016.066.026-.054" transform="translate(-2722.47 -1767.842)"/><path class="d" d="M3483.058,2299.169c-1.589-.028-2.181,2.456-.47,2.8a17.754,17.754,0,0,1,3.852,1.528c-.585-1.918-1.922-3.094-3.382-4.328" transform="translate(-2648.535 -1749.055)"/><path class="d" d="M3308.1,1812.411l-.627.164c-.358,14.142-1.355,28.26-1.654,42.4-.28,13.267-.357,26.636,1.613,39.787.254,1.7.359,3.414,1.423,4.826a12.689,12.689,0,0,0,2.82,2.65,20.416,20.416,0,0,0,4.212,2.067,132.67,132.67,0,0,0,13.63,4.361c10.462,2.931,21.216,5.125,31.054,9.89,3.061,1.483,5.983,3.228,8.881,5,2.285,1.4,4.956,2.849,6.688,4.946a3.913,3.913,0,0,1,.469.723c.054.123.123.057-.008.1.127-.046-.245.037-.315.043a4.967,4.967,0,0,1-1.161-.056,19.752,19.752,0,0,1-5.734-2.043,13.806,13.806,0,0,1-1.759-1,1.208,1.208,0,0,0-1.076-.21q1.159.788,2.282,1.625a18.534,18.534,0,0,1,4.33,4.155,7.874,7.874,0,0,0,4.019.273,2.946,2.946,0,0,0,1.918-4.323c-1.117-2.225-3.675-3.792-5.676-5.117a93.788,93.788,0,0,0-19.052-9.848c-4.838-1.8-9.815-3.1-14.8-4.421-5.1-1.35-10.2-2.7-15.242-4.247-3.682-1.126-7.707-2.181-10.995-4.257a5.185,5.185,0,0,1-.8-.634,6.3,6.3,0,0,1-1.7-1.874,9.26,9.26,0,0,1-.5-2.484c-.167-1.074-.325-2.15-.466-3.227q-.717-5.5-1-11.035c-.348-6.524-.253-13.055-.248-19.584.011-14.852,1.127-29.681,1.609-44.52q.069-2.123.119-4.246H3308.5l-.4.105" transform="translate(-2514.736 -1378.682)"/><path class="d" d="M3314.228,1812.306h-1.02c0,.09,0,.179-.007.269l.627-.164.4-.105" transform="translate(-2520.463 -1378.682)"/><path class="d" d="M3559.207,2289.4q-1.12-.84-2.282-1.625a1.545,1.545,0,0,0-.374,2.689,22.448,22.448,0,0,0,4.845,2.354c.666.256,1.392.523,2.14.737a18.538,18.538,0,0,0-4.33-4.155" transform="translate(-2705.104 -1740.389)"/><path class="d" d="M3221.445,2279.86c-.048.005-.1.011-.145.021-5.437,1.06-11,1.144-16.5,1.686a21.778,21.778,0,0,1-1.048,2.98c6.021-.668,12.114-.721,18.077-1.854l-.143.008c-1.766.085-1.835-2.527-.237-2.841" transform="translate(-2437.199 -1734.366)"/><path class="d" d="M3195.991,2287.2c-1.811.219-1.833,3.093,0,2.871.272-.033.544-.062.816-.093a21.759,21.759,0,0,0,1.048-2.98c-.622.061-1.244.127-1.864.2" transform="translate(-2430.258 -1739.793)"/><path class="d" d="M3274.069,2279.832c-1.6.313-1.529,2.926.237,2.841l.143-.008c.079-.015.159-.028.239-.043,1.762-.344,1.084-2.971-.619-2.79" transform="translate(-2489.823 -1734.337)"/></g></g></svg>