<svg xmlns="http://www.w3.org/2000/svg" xmlns:xlink="http://www.w3.org/1999/xlink" width="430.989" height="636.282" viewBox="0 0 430.989 636.282"><defs><style>.a{fill:none;}.b{clip-path:url(#a);}</style><clipPath id="a"><rect class="a" width="430.989" height="636.282"/></clipPath></defs><g class="b"><path d="M141.049,82.588a14.033,14.033,0,0,0-4.552,1.248c-1.4.557-3.206,1.107-4.25,2.25-.036.039-.031.085-.058.127-.079.015-.158.013-.235.034a.357.357,0,0,0-.086.648c.092.047.2.086.305.13a.794.794,0,0,0,.816.336.136.136,0,0,1,.032-.008c4.016,1.345,11.5,1.565,8.906-4.261a.988.988,0,0,0-.878-.5m-3.986,3.767c-.335-.015-.668-.054-1-.09a16.623,16.623,0,0,1,4.3-1.555c.409,1.736-1.721,1.715-3.3,1.645"/><path d="M100.462,70.864a4.413,4.413,0,0,0-2.873-1.808,1.608,1.608,0,0,0-1.566,2.033.25.25,0,0,0,.416.108c.456-.524.582-.879,1.289-.651a4.143,4.143,0,0,1,1.737,1.526,6.178,6.178,0,0,1,1.131,2.342,4.132,4.132,0,0,1,.015.975c0,.264-.256.455-.247.752a.414.414,0,0,0,.293.386c1.184.478,1.627-1.508,1.526-2.25a7,7,0,0,0-1.721-3.413"/><path d="M272.94,138.715a.763.763,0,0,0-1.116-.453,10.985,10.985,0,0,0-1.751,1.428,15.4,15.4,0,0,0-1.19-4.448.755.755,0,0,0-1.093-.447,5.873,5.873,0,0,0-1.756,1.939.642.642,0,0,0-.671.078c-3.633,2.733-6.176,6.619-9.807,9.371-2.357,1.786-5.227,1.616-7.989,1.988a7.88,7.88,0,0,0,1.155-8.241.783.783,0,0,0-1.413-.183c-2.477,3.273-4.473,6.692-8.071,8.853-2.227,1.337-4.59,2.382-6.682,3.936-2.95,2.193-4.04,6.731-3.471,10.426-.345.729-.578,1.5-.965,2.27a14.239,14.239,0,0,1-3.426,4.042c-1.6,1.409-3.407,2.562-5.1,3.85a22.078,22.078,0,0,0-3.773-2.1c-.613-.22-.939.243-1.034.789a1,1,0,0,0-.4.3c-4.906,6.4-11.776,11.011-18.012,15.994-3.758,3-7.9,6.5-10.754,10.676a.81.81,0,0,0-.322.023c-1.25-1.443-2.772-5.438-3.422-6.565-1.406-2.441-2.842-4.861-4.246-7.3-2.8-4.869-5.414-9.826-7.732-14.946a177.516,177.516,0,0,1-6.423-17.752c-.752-2.277-1.622-4.6-2.443-6.942-.624-5.976-2.494-11.773-7.835-15.153A73.024,73.024,0,0,0,140.18,124c-4.234-1.622-11.5-2.289-14.855-5.78a7.967,7.967,0,0,1-.559-1.383,20.541,20.541,0,0,1-.143-6.154c.161-2.519,1.255-6.083.876-8.833a23.234,23.234,0,0,0,6.94,1.021c6.383-.117,10.976-6.354,14.015-11.241,3.282-5.28,6-12.323,5.164-18.687,2.374-.732,3.472-3.315,4.162-5.648.638-2.161,2.374-6.606,1.082-8.859.051-.023.107-.03.158-.054a.43.43,0,0,0,.085-.675,7.354,7.354,0,0,0-4.124-1.4,44.518,44.518,0,0,0-.259-5.012A21.182,21.182,0,0,0,151.5,44.91a12.033,12.033,0,0,0-6.031-6.651c-1.379-1.892-3-3.741-4.458-5.492-2.608-3.131-5.854-4.362-9.644-5.655-7.028-2.4-16.579-4.768-24.239-2.973,1.334-3.638-6.129-6.964-9.277-7.7-7.357-1.724-15.7,1.365-21.184,6.232-5.091,4.515-5.611,10.914-4.012,17.12.811,3.153,3.674,7.468,6.864,6.959a28.293,28.293,0,0,0-1.5,3.31c-2.325,6.3,0,13.423,2.957,19.054a44.007,44.007,0,0,0,6.14,8.482A27.124,27.124,0,0,1,93.084,88.32c-.248,3.184-.307,6.395-.531,9.394-.4,5.423-.852,11.037-2.682,16.183-6.193,8.636-15.493,12.509-25.638,16.125-7.82,2.784-14.07,7.2-17.672,13.857-2.215,2.123-2.589,5.761-3.437,8.569-1.707,5.65-3.071,11.409-4.39,17.157-2.71,11.812-4.949,23.724-7.6,35.549-2.681,11.952-6.647,23.673-7.412,35.971-.289,4.634-1.133,10.361.672,14.742,1.429,3.465,5.16,5.738,8.146,7.7a.845.845,0,0,0,.722.124,3.77,3.77,0,0,0,2.707.028c3.211-.768,6.447-1.778,9.61-2.732a145.155,145.155,0,0,0,16.459-6.344,134.891,134.891,0,0,0-2.382,14.486c-.839,6.752-.562,14.054-2.122,20.645a.969.969,0,0,0,.924,1.21c2.016.039,4.026-.038,6.029-.168a85.97,85.97,0,0,0-8.8,23.492c-1.228,5.4-.411,11.008.04,16.481.515,6.256,1.349,12.48,2.25,18.688,1.849,12.769,4.27,25.519,7.292,38.063,1.419,5.906,2.878,11.788,3.974,17.765,1.17,6.387,1.113,12.9,2.293,19.268a.725.725,0,0,0,.7.862h.034a.536.536,0,0,0,.089,0c.05-.011.1-.019.155-.029.021-.005.041-.005.062-.01,3.706-.621,7.341-1.329,11.018-1.883.458,2.385-.514,8.293-.6,9.589a52.8,52.8,0,0,1-1.139,7.468c-6.392,5.625-11.367,13.7-15.258,21.042-4.662,8.8-7.02,18.512-9.657,28.045-3.055,11.042-6.146,22.071-9.9,32.895-3.405,9.815-7.165,19.833-12.527,28.8-4.878,2.135-10.846.5-13.609,5.029-1.05,1.414-1.487,3.146-2.291,4.858a49.186,49.186,0,0,1-5.814,8.913c-1.042,1.345-11.084,14.5-11.542,14.285-.813-.375-1.709.6-1,1.3.891.868,1.762,1.719,2.713,2.51v.013a.362.362,0,0,0,.66.276.247.247,0,0,0,.032-.046.569.569,0,0,0,.437-.616c2.885-4.02,5.463-8.144,8.855-11.863,1.341-1.469,2.5-3.106,3.813-4.6a14.593,14.593,0,0,1,3.046-2.477c.007.155.016.315.018.468.08,5.879-2.969,12.081-4.652,17.609-.634,2.087-1.342,4.143-2.086,6.193-.615,1.681-2.841,4.5-2.639,6.24a7.6,7.6,0,0,0,2.887,4.98c3.937,3.57,9.41,5.6,14.15,8.248a6.429,6.429,0,0,0,4.182,1.73.886.886,0,0,0,.88-.879c.117-3.671-1.289-6.718-2.436-10.136-1.079-3.217.378-6.818-.073-9.943A56.277,56.277,0,0,1,36.383,584a106.828,106.828,0,0,0,8.494-12.75c5.315-9.227,9.642-18.957,14.369-28.482,4.469-9.007,8.881-18.07,13.634-26.929,2.258-4.212,4.692-8.326,7.339-12.306,1.523-2.283,3.174-4.463,4.866-6.625,2.755,13.315,5.582,26.613,7.807,40.03,2.327,14.024,3.825,28.175,4.99,42.346-.008.372-.017.742-.022,1.119a19.783,19.783,0,0,1-2.823,9.705c-1.692,3.033-2.121,6.033-.583,9.244,1.064,2.224,2.39,4.29,3.585,6.447,1.718,3.087,1.964,6.769,2.3,10.2a57.405,57.405,0,0,1-.025,14.965.948.948,0,0,0,1.144,1.143,22.22,22.22,0,0,0,3.047-.626l.007,0c.351.094.7.187,1.046.283.468.127.769-.291.711-.711-.686-4.965.028-9.99-.227-14.975-.193-3.777-.5-7.184,1.089-10.609.509.423,1.034.833,1.524,1.274a35.649,35.649,0,0,1,3.29,3.921,46.254,46.254,0,0,1,5.116,10.625c1.65,4.53,3.54,10.966,8.3,13.144,3.748,1.716,8.946,1.4,12.992,1.5,4.389.1,10,.935,14.251-.43a1.162,1.162,0,0,0,.678-1.67c-1.386-3.24-5.065-4.153-8.126-5.224a53.044,53.044,0,0,1-4.834-2.228,39.851,39.851,0,0,1-5.3-8.555.26.26,0,0,0-.235-.137c-2.21-5.419-4.254-10.971-6.433-16.29-2.98-7.276-4.838-15.235-7.963-22.45a317.848,317.848,0,0,1-3.732-36.9c-.876-16.146-.5-32.346-.151-48.5.31-14.3-.039-28.588.031-42.885,2.737-7.232,8.9-12.4,13.9-18.019,1.425-1.6,6.476-6.785,6.04-9.665a54.485,54.485,0,0,1,8.9,1.992.541.541,0,0,0,.484-.074.362.362,0,0,0,.271-.227c1.73-4.455,1.706-8.993,1.963-13.709.34-6.286.555-12.58.841-18.869.573-12.626,1.229-25.247,1.768-37.874s.972-25.271,1.133-37.91q.123-9.465-.076-18.916c-.106-5.259.1-10.865-.879-16.073a24.971,24.971,0,0,0,7.879-.525.59.59,0,0,0,.151-1.07c-1.944-4.644-1.714-10.263-2.092-15.207-.5-6.6-.962-13.177-1.189-19.789-.382-11.189-.117-22.339,2.346-33.207.616.706,1.335,1.35,1.7,1.748,2.827,3.142,5.114,6.677,7.941,9.832a58.575,58.575,0,0,0,10.8,9.166c2.7,1.836,5.676,3.783,9,2.694s6.652-5.065,9.217-7.248c4.4-3.744,8.524-7.806,12.538-11.959s7.806-8.466,11.555-12.836c3.177-3.7,8.051-5.94,11.878-8.882a1.033,1.033,0,0,0,.214-1.44,3.062,3.062,0,0,0-.091-2.48c-.507-1.138-1.741-2.053-1.7-3.362a.54.54,0,0,0-.014-.082,33.96,33.96,0,0,0,3.1-5.017c1.907-3.661,4.061-7.1,6.2-10.63,3.306-5.461,8.782-6.487,14.449-8.228a62.291,62.291,0,0,0,12.146-5.114.765.765,0,0,0,.318-.944,11.63,11.63,0,0,0,1.588-5.444,9.038,9.038,0,0,0,1.1-2.218c.57-1.275,1.3-2.482,1.918-3.731a10.385,10.385,0,0,0,1.106-6.638m-8.111.874c-.28.89-.521,1.779-.788,2.6a18.644,18.644,0,0,1-3.643,5.692c-.352.437-.886.918-1.24,1.445a3.5,3.5,0,0,0-2.413-1.816c3.072-2.027,5.478-5.246,8.084-7.917M218.2,174.272c-.238.212-.48.417-.709.641-.349-.6-.7-1.176-1.051-1.753.072.039.156.083.216.122.515.333,1.026.667,1.544.99m-98.456,26.37c-.208.142-.165.572.144.532,6.077-.754,12.246.363,18.364.471a21.934,21.934,0,0,0,7.2-.9c3.161-1,5.748-2.984,8.889-4.031a27.914,27.914,0,0,1-6.305,5.353c-4.074,2.5-8.3,2.3-12.839,2.844a.25.25,0,0,0-.066.489c6.717,2.738,13.929-1.04,18.946-5.94-1.742,3.507-4.113,6.85-8.049,7.838-2.547.638-7.867.02-9.357,2.7a.116.116,0,0,0,.128.169c2.5-.37,4.953-1,7.482-1.329a14.768,14.768,0,0,0,4.338-1.071c-.067.157-.124.323-.2.478a13.787,13.787,0,0,1-6.211,3.824c-1.252.389-3.563.27-4.381,1.363-.022.026-.008.065.012.091,1.115,1.373,4.851-.186,6.15-.644a14.481,14.481,0,0,0,2.078-.913,19.965,19.965,0,0,1-8.819,6.007c-3.28,1.117-6.816-.212-10.057.8a33.013,33.013,0,0,0-9.169-.367c-2.95.37-5.26,2.857-7.32,4.758a76.018,76.018,0,0,1-7.259,5.681c-.953.685-2.746,1.512-3.977,2.467-3.77-1.974-4.135-9.529-2.868-14.975,3.277-2.8,7.186-4.729,10.733-7.144,2.968-2.025,4.805-4.644,6.665-7.662,3.056-4.954,7.188-5.1,12.4-6.162,3.88-.791,6.067-4.011,9.308-5.841a13.325,13.325,0,0,1-2.839,5.642c-1.5,1.606-3.579,2.568-5.477,3.687-2.812-.054-5.521.318-7.648,1.782m26.135-1.828c.617-.67,1.23-1.34,1.9-1.96.558-.515,1.4-1.4,2.217-1.458.214-.021.223.558.236.7a4.41,4.41,0,0,0,.075.561c-.843.39-1.68.8-2.532,1.272a16.493,16.493,0,0,1-1.9.882m-19.815,44.219c-.091,1.764-.163,3.522-.242,5.281a78.771,78.771,0,0,0-14.064-.443c-3.189.093-7.253.3-10.092,2.09.422-6.121,1.108-12.216,1.462-18.339,2.158-1.44,4.337-3.385,5.175-4.018,2.78-2.092,5.165-4.675,8.062-6.609,2.968-1.984,7.647-.582,11.24-.975-1.159,7.5-1.161,15.465-1.541,23.013m-27.32-31.2c.087.119.167.243.24.367a17.426,17.426,0,0,0-1.413,1.117,10.22,10.22,0,0,1,.521-1.037c.217-.147.435-.295.652-.447m25.974-18.085c-3.551.727-7.379.9-10.085,3.573a22.675,22.675,0,0,0-2.991,4.357,20.973,20.973,0,0,1-6.376,6.6c-1.09.75-2.306,1.438-3.52,2.157-.389-13.951-2.975-28.092-6.082-41.639-1.574-6.857-3.331-13.723-5.236-20.549,4.489,4.881,12.5,7.307,18.466,8.042,7.741.956,17.616-1.107,22-7.53-.11,2.989-.251,5.975-.467,8.954-.836,11.556-1.436,23.109-2.2,34.663a11.7,11.7,0,0,1-3.506,1.373M146.133,88.124c-2.742,5.614-6.963,12.468-13.694,13.221a16.993,16.993,0,0,1-7.464-1.091.676.676,0,0,0-.394-.145,59.179,59.179,0,0,1-9.3-4.722,31.722,31.722,0,0,1-7.183-5.181c-2.408-2.548-2.985-6.134-4.068-9.314a.519.519,0,0,0-.183-.22,2.9,2.9,0,0,0,.545-1.288.97.97,0,0,0-1.608-.936c-4.87,4.117-7.928-1.8-8.507-6.224-.232-1.759-.358-4.308.9-5.746,1.092-1.254,2.876.057,4.323,1.109a7.168,7.168,0,0,0,1.614,2.692.65.65,0,0,0,1.174-.152,22.945,22.945,0,0,1,2.954-5.65A43.208,43.208,0,0,0,115.611,62a.847.847,0,0,0,.214-.127c1.1,3.628,8,9.156,9.74,9.834,5.1,2,10.1-6.325,9.578-11.016a3.085,3.085,0,0,0,.894-.22c.673.068,1.322.091,1.8.13a11.151,11.151,0,0,0,2.274-.034c-.737,2.069.2,5.011,1.173,6.767a.218.218,0,0,0,.02.034,22.726,22.726,0,0,1,1.709,7.579,11.617,11.617,0,0,1-4.324.344c-.4-.057-.773.4-.424.731,1.81,1.728,3.694,1.174,5.965.621a.977.977,0,0,0,.709-.931,15.053,15.053,0,0,0-.574-4.786,9.74,9.74,0,0,0,5.59,2.219,34.884,34.884,0,0,1-3.821,14.979M101.685,67.779a6.009,6.009,0,0,0-2.341-2.666,39.055,39.055,0,0,1,3.888-.416A14.919,14.919,0,0,0,102,67.086a6.526,6.526,0,0,1-.319.693m31.327-7.907a.905.905,0,0,0-.039.165c-.173,3.049-2.754,10.464-6.865,9.694-3-.561-8.119-6.133-8.494-9.526,3.449-1.409,12.511-3.553,15.4-.333m22.149-1A24.378,24.378,0,0,1,152.5,69.367c-1.993,3.568-6.1.972-8.094-1.03-2.392-2.4-3.229-5.36-1.835-8.277,1.563-.46,3.122-1.326,4.682-1.473,2.365-.228,5.407.581,7.9.289m-4.59-10.866c.4,1.637-.128,6.111,1.008,8.223-1.569-.033-3.13.083-4.323.153a16.631,16.631,0,0,0-6.16,1.932,31.018,31.018,0,0,0-3.26.123c-.9-.023-2.254-.382-3.4-.356a6.8,6.8,0,0,0-1.341-.714,16.132,16.132,0,0,0-6.114-.9c-3.026.01-7.831.354-10.093,2.756a1.907,1.907,0,0,0-1.122,1.27.8.8,0,0,0-.584-.065c-2.741.68-5.422,1.246-8.122,1.735,6.246-6.984,16.324-10.925,25.218-11.75,3.759-.346,8.032-.592,10.51-3.79a10.146,10.146,0,0,0,1.563-7,3.305,3.305,0,0,0,.964.337c.782.723,1.61,1.391,2.4,2.143a11.488,11.488,0,0,1,2.862,5.908m-76.23-9.634a14.392,14.392,0,0,1,1.73-12.058c3.023-4.54,8.808-6.937,13.932-7.977,3.28-.664,17.3.106,14.935,6.444-.1.036-.212.067-.317.1a.762.762,0,0,0-.383.337c-5,.856-9.589,4.574-13.284,7.739A50.72,50.72,0,0,0,80.543,44.892c-3.7-.173-5.184-2.568-6.2-6.516M89.386,77.618c-5.249-6.534-9.833-12.883-10.179-21.625-.3-7.677,6.118-14.341,11.149-19.414,4.668-4.709,9.879-7.628,15.61-10.527,8.362-2.25,18.4.706,26.371,3.426,4.607,1.572,6.631,3.9,9.472,7.577.312.4.619.8.939,1.171-.458,2.477-.151,4.9-1.314,7.357-1.543,3.255-7.446,3.2-10.339,3.478a36.425,36.425,0,0,0-13.832,3.924A45.851,45.851,0,0,0,105,62.341c-.061.065-.114.139-.173.2-1.478.241-2.966.463-4.487.657a7.132,7.132,0,0,0-3.157,1,3.878,3.878,0,0,0-2.773.326c-2.352,1.371-2.381,5.047-2.152,7.377a14.4,14.4,0,0,0,2.624,7.039,28.389,28.389,0,0,0-1.311,5.21,30.867,30.867,0,0,0-4.189-6.534m.738,39.878a1.115,1.115,0,0,0,.4-.352c2.96-4.333,3.158-10.783,3.694-15.835.724-6.85,1.725-14.2,1.752-21.16a5.248,5.248,0,0,0,5.6,1.19.58.58,0,0,0,.427.333,10.356,10.356,0,0,0,.745,3.119A11.773,11.773,0,0,0,106.1,89.9c.025.018.05,0,.078,0a22.706,22.706,0,0,0,6.125,5.458,59.589,59.589,0,0,0,11.506,5.96c-1.223,4.267-2.924,17.809.922,18.649a7.432,7.432,0,0,0,3.076,2.1c1.327.517,2.674.97,4.026,1.415v0c-.506,7.173-.615,14.379-.825,21.581a16.285,16.285,0,0,1-7.071,6.842c-4.232,2.164-9.347,2.47-14,2.172-8.422-.538-16.457-4.318-21.083-11.323-1.8-6.149-3.735-12.249-5.835-18.258a24.682,24.682,0,0,0,7.108-7M39.89,260.48c-1.3.346-4.279,1.817-6.046,1.8a.957.957,0,0,0-.333-.391c-5.125-3.356-8.563-6.433-8.166-13.027a162.081,162.081,0,0,1,1.4-16.187c1.721-10.633,5.085-21.007,7.375-31.531,2.129-9.78,4-19.613,6.1-29.4,1.032-4.81,2.094-9.609,3.266-14.388.388-1.582.8-3.154,1.215-4.729.026-.034.064-.034.084-.078,2.769-5.877,4.759-11.483,10.172-15.551,5.481-4.116,12.852-5.252,19.1-7.822a52.6,52.6,0,0,0,7.528-3.762c7.5,28.27,17.788,56.29,18.578,85.872a2.529,2.529,0,0,0-.773-.712.653.653,0,0,0-1.027-.338c-.1.072-.2.129-.294.2-.01,0-.02,0-.03.011-.038.026-.071.057-.11.085a48.72,48.72,0,0,1-18.946,7.825c-4.6.938-9.314,1.419-13.927,2.34,1.409-8.011,2.966-16.741.71-24.6-.131-.453-.295-.911-.441-1.361.01-.085.029-.17.04-.256.014-.116-.074-.137-.162-.119-2.2-6.55-6.028-13.27-6.611-20.068a.129.129,0,0,0-.257,0c-.474,6.449,2.513,13.27,4.4,19.311a34.6,34.6,0,0,1,1.023,4.3c-1.427,3.883-2.754,7.809-4.22,11.68-.839,2.218-1.718,4.419-2.591,6.624-.938,2.374-.772,4.9-1.766,7.243-5.726,1.833-13.652,4.841-14.048,9.622a.228.228,0,0,0,.386.16c3.182-3.84,8.6-6.185,14.05-7.791a.8.8,0,0,0,.874-.251c3.086-.866,6.145-1.512,8.778-2.066,10.8-2.275,20.679-3.612,30.005-9.019-1.359,3.517-1.044,8.233-.627,11.336.217,1.624,1.643,6.139,3.678,7.7-8.882,6.777-18.815,11.077-28.857,15.892-6.315,3.025-12.757,5.826-19.321,8.259-3.344,1.236-6.757,2.26-10.2,3.178m23.183-39.343c-1.272.3-2.537.628-3.783,1.037-.518.168-1.148.365-1.835.574a12.975,12.975,0,0,0,.395-2.092c.357-3.191,1.513-5.955,2.606-8.947,1.345-3.68,2.693-7.408,3.686-11.217.761,6.824-.183,13.712-1.069,20.645m-1.98,51.5c.694-6.229,1.636-12.419,2.39-18.638.716-.321,1.439-.636,2.154-.96,12.244-5.523,24.6-10.8,35.194-19.21a.824.824,0,0,0,.343-.78c.037-.029.073-.07.109-.1-1.427,6.927-1.625,14.24-1.9,21.242-.355,9.146-.253,18.318-.042,27.469-5.875.768-11.7,3.163-17.444,4.525a95.885,95.885,0,0,1-22.282,2.886c1.046-5.363.871-11,1.475-16.43m-28.41,281.6c0-.064-.007-.124-.014-.183.072-.029.129-.078.2-.109-.062.1-.121.2-.184.292M12.929,573.461c-3.063,3.765-7.876,8.1-9.5,12.976a5.918,5.918,0,0,0-1.183-1.268c1.277-1.119,2.568-3.046,3.644-4.016,2.707-2.443,4.882-5.729,7.172-8.558a73.331,73.331,0,0,0,5.522-7.747,16.328,16.328,0,0,0,.9-1.725c.028,1.326.147,2.663.242,3.982-2.734.66-5.437,4.691-6.79,6.356m17.8,39.023a5.621,5.621,0,0,1-1.359-.551c-2.688-3.256-7.888-4.955-11.317-6.9s-6.274-3.94-4.426-8.081a92.078,92.078,0,0,0,3.854-11.022c1.361-4.51,3.087-8.852,4.123-13.459.686-3.06.357-6.145.256-9.25-.079-2.483.124-4.921,1.838-6.905s5.053-1.61,7.385-1.876c.127-.013.228-.06.35-.083a93.516,93.516,0,0,1-3.851,16.766c-2.058,5.883-4.5,11.606-6.154,17.625-1.055,3.832-1.947,7.78.17,11.357,1.483,2.5,4.013,2.777,6.37,1.95.521,3.537,2.5,6.785,2.761,10.426M79.348,501.227a113.949,113.949,0,0,0-8.376,13.5c-5.106,9.3-9.817,18.907-14.423,28.459-4.614,9.57-8.693,19.422-14.107,28.583-5.1,8.641-13.464,16.138-15.957,26.088a.877.877,0,0,0,1.4.877c-.013.462-.026.91-.041,1.3-.013.29.023.567.035.848-4.763,1.531-6.455-3.909-5.723-7.193.448-1.994.843-3.972,1.39-5.945,1.107-3.995,2.666-7.869,4.132-11.734,2.3-6.07,5.005-12.828,5.1-19.5a.8.8,0,0,0,.666-.364c12.231-17.853,18.372-40.085,24.173-60.681,2.988-10.6,5.471-21.387,10.262-31.361,3.541-7.371,8.62-13.458,13.2-20.013-.514,2.291-1.015,4.589-1.338,6.914-1.918,13.81,1.517,27.27,4.267,40.724.217,1.057.439,2.115.655,3.169-2.19,1.513-3.783,4.278-5.319,6.328m24.744,111.414c.023,2.055,1.262,14.383.743,17.55a6.946,6.946,0,0,0-2.572-.078c.952-8.184.847-17.769-2.541-25.3-.872-1.939-2.02-3.682-2.969-5.559,2.987,1.489,5.985,2.73,8.712,4.817.244.189.461.4.7.59-2.168,1.8-2.1,5.334-2.073,7.977m46.4,21.077c-3.844.8-8.414.1-12.143-.114-3.981-.225-10.107.339-13.3-2.322-4.221-3.517-5.4-11.062-7.589-15.913-2.485-5.495-6.594-9.637-11.423-13.1a.337.337,0,0,0-.329-.028,18.174,18.174,0,0,0-9.555-4.329c-.1-.24-.226-.473-.318-.721-1.343-3.635,1.752-7.059,3.124-10.162.015-.036.022-.075.037-.111.024.01.04.025.064.033,2.2,7.943,10.543,14.61,15.243,20.48,6.062,7.574,11.915,20.531,23.14,20.4a.9.9,0,0,0,.856-.716,19.93,19.93,0,0,0,2.135,1.929c2.814,1.968,7.718,2.092,10.056,4.67M117.2,569.353c.452,6.2.712,12.977,3.882,18.482.009.014.026.014.036.029,1.5,4.861,3.59,9.64,5.382,14.048,3.162,7.771,6.351,15.913,10.366,23.312-2.091,3.573-9.375-3.719-10.942-5.524-3.727-4.293-6.821-9.091-10.334-13.549-3.267-4.148-7.068-7.817-10.291-12-2.348-3.041-3.623-6.461-5.182-9.834-.9-14.829-2.1-29.658-4.421-44.34-2.592-16.368-6.442-32.545-9.853-48.752-1.734-8.234-3.692-16.56-4.555-24.941-.86-8.349.277-16.717,2.168-24.846.1-.448.179-.877.272-1.317.1-.168.219-.328.323-.5a.316.316,0,0,0-.124-.474,64.509,64.509,0,0,0,1.147-10.306,24.71,24.71,0,0,0,0-5.555c1.535-.209,3.08-.385,4.646-.5,6.069-.44,12.172-.37,18.255-.483,2.267-.042,4.616-.1,6.99-.151-.065,8.911-.542,17.829-.572,26.74-.053,16.138.6,32.227.221,48.38-.379,16.179-.684,32.362.354,48.52.506,7.879,1.66,15.683,2.236,23.552m16.294-144c-1.926,3.358-4.688,6.22-7.077,9.241-3.416,4.321-7.049,8.513-9.878,13.247,0-.24,0-.481,0-.722.087-8.351.745-16.707.627-25a130.984,130.984,0,0,1,17.648.681,20.122,20.122,0,0,0-1.324,2.558M149.52,316.315c-.1,12.008-.517,24.011-.993,36.012s-1.033,23.989-1.411,35.989c-.363,11.545.941,24.069-1.547,35.394-4.932-2.073-10.939-2.275-16.208-2.867-4.074-.455-8.153-.637-12.236-.694a75.522,75.522,0,0,0-2.477-18.043c-.092-.333-.666-.277-.621.086a149.822,149.822,0,0,1,.953,17.94c-2.335-.006-4.67.01-7.006.061-11.009.247-24.415-1.142-34.837,3.445-.882-5.034-.922-10.165-1.694-15.22-.914-6-2.282-11.892-3.716-17.788-2.9-11.923-5.244-23.973-7.22-36.084-1.089-6.664-1.936-13.356-2.585-20.076-.613-6.338-1.658-13.361-.262-19.624,1.9-8.551,5.6-16.066,8.632-24.19a114.959,114.959,0,0,0,12.872-1.906c5.38-1.088,11.55-2.185,16.918-4.336,1.484-.179,2.967-.38,4.442-.657a.8.8,0,0,0,.583-.768c.017-.2.027-.4.038-.592a.938.938,0,0,0,.133-.478c-.024-8.629-.146-17.253.082-25.882.041-1.538.139-3.072.234-4.6,3.885-.352,7.692-1.562,11.69-1.681,4.114-.119,8.374.551,12.473.1-.37,8.629-.671,17.236-1.329,25.879a.645.645,0,0,0,.641.641c7.853.336,16.162,3.824,24.261,4.8-.525,5.309.079,10.9.16,16.228.1,6.3.085,12.611.03,18.916m45.648-90.061c-3.666,3.222-7.99,8.624-13.123,5.994a48.971,48.971,0,0,1-10.911-8.3c-3.017-2.857-5.226-6.236-7.816-9.441-.895-1.106-4.026-3.177-4.971-4.608.491-1.97,1.033-3.93,1.686-5.882,1.792-5.352,3.7-10.586,4.531-16.2.812-5.484-.458-10.961-1.837-16.246-1.506-5.763-3.587-11.357-5.326-17.048-.9-2.953-3.193-6.273-3.584-9.293-.05-.4-.689-.582-.769-.1-.388,2.322,1.124,5.461,1.768,7.639q2.373,8.016,4.734,16.039c2.066,7.044,3.589,13.987,2.231,21.3-1.111,5.986-3.228,11.773-4.686,17.679-3.221,13.04-3.775,27.185-3.279,40.548.364,9.774-.137,22.036,4,31.247a64.045,64.045,0,0,1-13.486-1.348c-4.205-.959-8.324-2.164-12.589-2.859a32.66,32.66,0,0,0-5.035-.383c-1.245-.008-.138-3.271-.072-3.822.523-4.323.772-8.657.939-13.009.28-7.245.349-14.475.828-21.716.355-5.373,1.45-11.3.811-16.7,3.791.062,7.176.38,10.989-1.246a19.232,19.232,0,0,0,10.378-11.434.712.712,0,0,0-.041-.523c2.642-2.128,5.768-6.061,5.579-9.278.421-.5.825-.992,1.192-1.492a.849.849,0,0,0-.953-1.241,6.232,6.232,0,0,0-.9.412,21.48,21.48,0,0,0-3.705,1.1,2.581,2.581,0,0,0-.664-1.735c-.793-.8-2.024-.249-2.8.258a14.691,14.691,0,0,0-3.02,2.878,7.63,7.63,0,0,0-1.457,2.051,22.189,22.189,0,0,1-7.03.289c-2.011-.163-4.326-.538-6.673-.755a12.168,12.168,0,0,0,7.254-10.3.652.652,0,0,0-.246-.5.794.794,0,0,0-1-.693c-2.494.89-4.376,2.542-6.446,3.954.858-11.258,1.934-22.5,2.757-33.768.806-11.036,2.144-22.75.795-33.791,2.649.843,5.309,1.655,7.908,2.656,5.159,1.993,12.02,4.5,15.135,9.327a16.437,16.437,0,0,1,1.78,3.972,34.321,34.321,0,0,0,2.091,7.881c.1.333.205.67.325,1,.008.021.028.026.037.042.27.77.524,1.523.727,2.213a169.114,169.114,0,0,0,6.258,18.473,166.463,166.463,0,0,0,9.221,17.956c1.685,2.922,3.4,5.826,5.117,8.735.784,1.324,1.412,3.4,2.683,4.437a19.247,19.247,0,0,0-1.574,3.506c-.2.623.714,1.221,1.146.67a94.14,94.14,0,0,1,15.047-15.9c2.879-2.337,5.8-4.628,8.6-7.051s4.839-5.154,7.21-7.869a59.088,59.088,0,0,0,15.866,18.946c-14.006,8.653-23.316,22.533-35.626,33.344M231.5,191.131a.215.215,0,0,1,.016.039,19.073,19.073,0,0,0-2.325-2.467c.158-.152.332-.294.483-.452a7.474,7.474,0,0,0,.822,1.42c.343.486.7.948,1,1.46m21.2-29.664c-4.185,1.268-8.252,2.128-11.471,5.281-2.848,2.784-4.947,7.129-6.875,10.565-2.014,3.6-4.041,7.013-6.227,10.464-1.1-.922-2.229-1.807-3.249-2.717a36.193,36.193,0,0,1-6.518-8.7c2.753-2.035,5.66-3.918,8.223-6.193,1.99-1.761,4.987-5.239,4.118-8.093a.538.538,0,0,0-.172-.251,21.823,21.823,0,0,1,1.354-5.681c1.108-2.353,4.175-3.615,6.341-4.761,4.336-2.3,6.589-5.745,9.392-9.5a12.158,12.158,0,0,1-.432,4.494,5.213,5.213,0,0,1-2.926,2.307.878.878,0,0,0-.641.843,9.634,9.634,0,0,0,.292,3.237.419.419,0,0,0,.758.1,4.576,4.576,0,0,0,.7-2.9c.133-.09.257-.186.381-.282a.581.581,0,0,0,.275.119,23.267,23.267,0,0,0,6.915-.589c.736-.011,1.527-.124,2.113-.106,1.537.046,2.36.84,3.563,1.631a.343.343,0,0,0,.275.019.139.139,0,0,0,0,.018.116.116,0,0,0,.1.077c1.9.168,4.394-4.3,5.355-5.771,1.506-2.307,1.316-6.454,3.376-8.391.364,1.546.528,3.115.927,4.641-.587.776-1.138,1.591-1.672,2.441a24.173,24.173,0,0,0-1.661,2.348,5.939,5.939,0,0,0-1.42,2.118,14.758,14.758,0,0,0-1.433,1.409c-.652.711-1.7,1.272-2.14,2.131a.368.368,0,0,0,.316.553c.987-.008,1.81-.9,2.49-1.531.038-.039.077-.083.118-.121a21.213,21.213,0,0,0-.215,3.007,12.2,12.2,0,0,0-1.172.46.5.5,0,0,0,.119.9,3.234,3.234,0,0,0,1.982-.113.745.745,0,0,0,.542-.714c.041-2.5.16-6.113,2.57-7.318-.028,1.386-.134,2.78-.3,4.143-.135,1.135-.371,4.326-1.374,5.554-4.236,1.642-8.338,3.548-12.705,4.866m16.877-15c-.183.341-.4.709-.612,1.088-.014-.773-.053-1.429-.1-1.851a.945.945,0,0,0-.608-.815,25.135,25.135,0,0,1,3.329-4.509c.018,2.19-.954,4.114-2.01,6.087"/><path d="M260.03,153.431c-5.623-.882-10.019-2.808-15.366-.147-2.961,1.473-7.279,5.07-6.346,8.8a.116.116,0,0,0,.209.028,15.17,15.17,0,0,1,9.866-8.334c4.037-1.208,7.752,2.239,11.747.494a.462.462,0,0,0-.11-.838"/><path d="M428.789,210.437c-1.075-34.04-2.379-67.962-1.916-102.04.486-35.788,2.112-71.552,4.021-107.29a.881.881,0,0,0-.884-.879C389.677,2.5,349.157,1.72,308.79.809c-20.249-.454-40.5-.943-60.754-.775-9.759.083-19.648-.008-29.374.845-4.493.4-8.958,1.112-13.445,1.578a60.165,60.165,0,0,1-9.021.721.769.769,0,0,0-.756-.993.488.488,0,0,0-.8.026c-.136.225-.239.458-.359.688a2.122,2.122,0,0,0-.4.5.736.736,0,0,0-.086.471c-1.539,3.54-1.564,7.481-1.458,11.346.179,6.5.969,12.924,1.021,19.448.133,16.241-.265,32.472-.877,48.7-1.21,32.164-.728,64.3.734,96.442a.053.053,0,0,0,.106,0c.528-15.042.088-30.15.43-45.21.357-15.841.986-31.673,1.348-47.514.358-15.616,1.182-31.182,1.1-46.813a175.671,175.671,0,0,0-.906-19.414c-.618-5.314-1.28-10.85-.257-16.143,4.123.92,9.526-.161,13.539-.6,7.478-.835,14.83-1.481,22.354-1.745,15.833-.566,31.68-.546,47.518-.354,31.556.377,63.083,1.375,94.641,1.321,15.819-.028,31.64-.2,47.444-.861,1.9-.08,3.8-.176,5.692-.269,2.621-.132,2.844.14,2.691,2.759q-.333,5.772-.654,11.538c-.463,8.311-.843,16.627-1.213,24.942-1.422,31.865-2.265,63.753-2.095,95.651.13,25.085.155,50.591,2.617,75.57a.666.666,0,0,0,.585.6c.222,1.544.481,3.08.713,4.624-7.811-.595-15.359.4-23.168.974-8.931.655-17.873,1.18-26.82,1.647-18.452.957-36.925,1.55-55.395,2.067-17.754.491-35.488.861-53.25.809-16.177-.049-33.82-.887-49.54,3.566-.121.033-.1.23.029.222,16.569-.8,32.889-1.986,49.511-1.833,17.765.158,35.491-.124,53.25-.564,17.833-.44,35.665-1.029,53.482-1.911q13.416-.663,26.819-1.606c8.8-.615,17.4-1.68,26.231-1.313a1,1,0,0,0,.957-1.252c-.565-2.785-1.392-5.523-2.178-8.256"/><path d="M399.5,45.96c-11.551,7.957-25.19,13.291-37.954,19.016-7.61,3.416-15.261,6.71-22.675,10.542-6.787,3.509-13.161,8.1-20.724,9.767a.92.92,0,0,0-.68.892c.285,13.234-2.765,26.207-5.458,39.081-.42,2.007-5.768,2.9-7.4,3.561a76.576,76.576,0,0,0-7.4,3.584c-5.182,2.772-10.1,6.027-15.179,8.983a.7.7,0,0,0,.709,1.21c9.9-5.216,19.065-11.755,30.043-14.584a.9.9,0,0,0,.632-.633c2.282-10.886,4.774-21.736,5.7-32.84.1-1.218-.47-7.47,1.045-7.8a31.7,31.7,0,0,0,5.979-2.2c5.259-2.343,10.164-5.586,15.282-8.223,10.57-5.448,21.715-9.681,32.355-14.982,8.882-4.427,19.024-7.62,26.579-14.258.6-.533-.193-1.569-.858-1.112"/><path d="M287.9,175.392a.349.349,0,0,0,.668,0c1.221-5.061.406-11.054.388-16.239-.012-2.88-.016-5.761-.036-8.637-.012-1.928.384-4.16-.641-5.851a.052.052,0,0,0-.091,0c-1.885,3.111-.658,9.431-.671,12.976-.022,5.652-.946,12.241.383,17.751"/><path d="M313.954,177.551a.384.384,0,0,0,.768,0c.94-7.84.349-16.04.219-23.916-.069-4.117-.179-8.228-.4-12.342-.127-2.356.1-5.3-1.037-7.442a.076.076,0,0,0-.138.018c-.731,2.268-.178,5.068-.109,7.424.119,4.114.181,8.228.235,12.342.1,7.9-.479,16.061.463,23.916"/><path d="M343.985,80.832a.337.337,0,0,0-.393-.365.332.332,0,0,0-.387.365c-1,13.477-.35,27.272-.322,40.778.037,16.4.366,32.8.838,49.187a.324.324,0,0,0,.647,0c.447-16.384.072-32.8-.036-49.187-.093-13.524.654-27.285-.347-40.778"/><path d="M379.395,169.894c.1-17.159.429-34.318.551-51.478.116-16.531.538-33.333-1.244-49.792-.062-.566-.906-.594-.906,0,.068,16.6.658,33.187.559,49.792-.1,17.16-.418,34.319-.346,51.478a.693.693,0,0,0,1.386,0"/><path d="M235.815,51.1a7.425,7.425,0,0,0-.886-.3c-.046-5.03-.172-10.046-.432-15.032-.018-.294-.5-.4-.549-.074-.663,4.874-1.06,9.807-1.307,14.762-.163-.01-.329-.024-.487-.028a8.689,8.689,0,0,0-4.1.481.716.716,0,0,0,0,1.225,8.35,8.35,0,0,0,3.727.486c.251,0,.512-.01.773-.023-.336,8.282-.283,16.627-.222,24.924a8.248,8.248,0,0,0-2.261.97.962.962,0,0,0,.482,1.779,9.139,9.139,0,0,0,1.793-.176c.025,3.91.04,7.807-.006,11.672-.047,3.833-.14,7.662-.234,11.489a6.252,6.252,0,0,0-2.717-.044.885.885,0,0,0,0,1.691,10.18,10.18,0,0,0,2.673.458c-.153,5.495-.347,10.987-.627,16.477-.085,1.641-.251,3.345-.445,5.089a9.334,9.334,0,0,0-1.827-.324.748.748,0,0,0-.526,1.267,4.573,4.573,0,0,0,2.132.991c-.759,6.462-1.622,13.28.119,19.152.2.681,1.335.58,1.272-.17-.525-6.255.1-12.435.687-18.644a5.925,5.925,0,0,0,3.864-.737.493.493,0,0,0-.247-.912c-1.158-.026-2.3-.112-3.444-.251.164-1.818.318-3.636.424-5.461.317-5.448.508-10.907.646-16.366a2.948,2.948,0,0,0,1.327-.323.6.6,0,0,0,0-1.027,4.641,4.641,0,0,0-1.284-.5q.113-4.988.182-9.981c.065-4.706.167-9.438.273-14.178.756-.271,1.494-.574,2.166-.889.5-.243.267-.879-.136-1.047a5.148,5.148,0,0,0-1.981-.326c.184-8.313.344-16.65.295-24.958a7.755,7.755,0,0,0,.879-.3.493.493,0,0,0,0-.848"/><path d="M261.626,181.657a1.016,1.016,0,0,0-.089-.07.886.886,0,0,0-.1-.077.165.165,0,0,0,0,.022c-.069-.036-.132-.077-.2-.108a1,1,0,0,0-1.147.465,3.8,3.8,0,0,0-.275,1.425c-3.431,0-6.859-.01-10.288,0a.534.534,0,0,0,0,1.068c3.457.313,6.927.541,10.4.727a11.33,11.33,0,0,0,.651,2.973.678.678,0,0,0,1.294,0,7.387,7.387,0,0,0,.29-2.875c8.2.385,16.439.5,24.684.455a15.741,15.741,0,0,0,.472,3.266.487.487,0,0,0,.931,0,19.193,19.193,0,0,0,.512-3.281c8.4-.062,16.806-.231,25.172-.355a15.3,15.3,0,0,0,.371,5,.509.509,0,0,0,.974,0,32.749,32.749,0,0,0,.96-5.022c1.948-.026,3.893-.054,5.837-.069q10.491-.078,20.981-.391a12.571,12.571,0,0,0,.424,2.8.592.592,0,0,0,1.132,0,23.621,23.621,0,0,0,.68-2.881c5-.152,10.005-.308,15-.538,5.894-.269,11.856-.406,17.721-1.044.207-.024.408-.052.615-.075a7.819,7.819,0,0,0,1.469,2.087c.326.32,1.037.116.977-.407a18.725,18.725,0,0,0-.367-1.957c4.494-.657,8.947-1.523,13.508-.789,1.12.181,1.606-1.52.476-1.714-4.169-.714-8.228-.243-12.38.351-.661.094-1.32.158-1.981.239-.042-.277-.089-.554-.109-.836-.034-.463.61-2.438-.129-2.64-.14-.036-.28-.075-.419-.114a1.076,1.076,0,0,0-1.2.489,4.767,4.767,0,0,0-.489,3.385c-4.6.471-9.208.7-13.846.941q-9.279.489-18.562.755a32.187,32.187,0,0,0,.241-3.757,1.022,1.022,0,0,0-2-.269,14.283,14.283,0,0,0-.786,4.091q-8.583.235-17.166.344c-3.16.041-6.318.044-9.475.064.018-.416.047-.838.043-1.238-.008-.82-1.257-1.27-1.64-.442a9.047,9.047,0,0,0-.56,1.7q-12.648.069-25.293.031a4.307,4.307,0,0,0-.289-2.927.5.5,0,0,0-.669-.176c-1.068.641-1.069,1.95-1.122,3.1q-12.369-.039-24.736-.062a2.515,2.515,0,0,0-.5-1.657"/></g></svg>