<svg xmlns="http://www.w3.org/2000/svg" width="63.267" height="57.998" viewBox="0 0 63.267 57.998"><defs><style>.a{fill:#fff;}</style></defs><path class="a" d="M36.247,33.633a7.908,7.908,0,0,1,7.908,7.908l0,3.946C44.693,55.169,37.236,60,23.406,60,9.621,60,2,55.233,2,45.625V41.541a7.908,7.908,0,0,1,7.908-7.908Zm21.092,0a7.908,7.908,0,0,1,7.908,7.908l0,2.776C65.72,53,59.13,57.358,47.085,57.358a41.893,41.893,0,0,1-4.608-.239,12.888,12.888,0,0,0,3.4-5.047l1.206.014h0c9.407,0,13.167-2.485,12.889-7.624V41.541a2.636,2.636,0,0,0-2.636-2.636H46.459a10.544,10.544,0,0,0-3.24-5.274ZM36.247,38.905H9.908a2.636,2.636,0,0,0-2.636,2.636v4.084c0,6.042,4.892,9.1,16.134,9.1,11.2,0,15.815-2.99,15.477-9.092V41.541A2.636,2.636,0,0,0,36.247,38.905ZM23.089,2A13.183,13.183,0,1,1,9.906,15.183,13.183,13.183,0,0,1,23.089,2ZM49.449,7.272A10.544,10.544,0,1,1,38.905,17.817,10.544,10.544,0,0,1,49.449,7.272Zm-26.361,0A7.91,7.91,0,1,0,31,15.183,7.91,7.91,0,0,0,23.089,7.272Zm26.361,5.272a5.272,5.272,0,1,0,5.272,5.272A5.272,5.272,0,0,0,49.449,12.544Z" transform="translate(-2 -2)"/></svg>