<svg xmlns="http://www.w3.org/2000/svg" width="57.506" height="57.581" viewBox="0 0 57.506 57.581"><defs><style>.a{fill:#fff;}</style></defs><path class="a" d="M37.253,57.95a18.252,18.252,0,0,1-5.16-1.008,15.664,15.664,0,0,0-3.781-.84,17.16,17.16,0,0,0-3.647.588c-2.487.605-5.328,1.294-7.983.1s-4.017-3.765-5.193-6.034a15.008,15.008,0,0,0-1.966-3.126,15.126,15.126,0,0,0-3.076-2.286C4.3,44.017,1.875,42.5.884,39.9s-.252-5.361.521-7.765a15.781,15.781,0,0,0,.79-3.815,15.126,15.126,0,0,0-.588-3.647C1,22.186.312,19.362,1.505,16.69a12.117,12.117,0,0,1,6.034-5.176A15.008,15.008,0,0,0,10.665,9.53a15.664,15.664,0,0,0,2.286-3.059c1.328-2.235,2.84-4.655,5.462-5.647s5.344-.168,7.765.605a15.5,15.5,0,0,0,3.781.84,16.118,16.118,0,0,0,3.647-.605c2.487-.588,5.328-1.277,7.983-.084a12.117,12.117,0,0,1,5.193,5.983,15.008,15.008,0,0,0,1.966,3.126,15.126,15.126,0,0,0,3.143,2.286c2.151,1.328,4.571,2.84,5.563,5.445s.168,5.361-.555,7.781a15.663,15.663,0,0,0-.84,3.781,15.126,15.126,0,0,0,.588,3.647c.605,2.487,1.294,5.311.1,7.983h0c-1.193,2.655-3.765,4.017-6.034,5.21a15.63,15.63,0,0,0-3.143,1.966A15.815,15.815,0,0,0,45.3,51.933c-1.328,2.151-2.84,4.571-5.445,5.563A7.193,7.193,0,0,1,37.253,57.95Zm-9.092-6.1h.269A19.058,19.058,0,0,1,33.3,52.857a8.975,8.975,0,0,0,5.076.672c1.277-.471,2.286-2.118,3.361-3.849A19.68,19.68,0,0,1,44.715,45.7a19.009,19.009,0,0,1,4.05-2.622,8.874,8.874,0,0,0,4.168-3.227h0a8.84,8.84,0,0,0-.353-5.26,18.487,18.487,0,0,1-.756-4.723,19.059,19.059,0,0,1,1.008-4.874,8.975,8.975,0,0,0,.672-5.076c-.487-1.277-2.118-2.286-3.849-3.361a19.68,19.68,0,0,1-3.983-2.975,19.008,19.008,0,0,1-2.588-4.05,8.975,8.975,0,0,0-3.227-4.168A8.941,8.941,0,0,0,34.6,5.7a16.907,16.907,0,0,1-4.756.773,19.327,19.327,0,0,1-4.907-1.059,8.891,8.891,0,0,0-5.042-.622c-1.277.487-2.286,2.118-3.361,3.849a19.68,19.68,0,0,1-2.975,3.95,19.008,19.008,0,0,1-4.05,2.622,8.975,8.975,0,0,0-4.168,3.227,8.941,8.941,0,0,0,.336,5.26,17.63,17.63,0,0,1,.773,4.756,19.327,19.327,0,0,1-1.059,4.907A8.891,8.891,0,0,0,4.766,38.4c.487,1.277,2.118,2.286,3.849,3.361A19.681,19.681,0,0,1,12.6,44.74a19.008,19.008,0,0,1,2.588,4.05,8.975,8.975,0,0,0,3.227,4.168,8.975,8.975,0,0,0,5.26-.353,19.361,19.361,0,0,1,4.487-.756Z" transform="translate(-0.406 -0.369)"/><path class="a" d="M18.9,28.8a2.05,2.05,0,0,1-1.462-.588l-6.05-5.933a2.092,2.092,0,0,1,2.924-2.992l4.6,4.5L29.889,13.334a2.1,2.1,0,1,1,2.891,3.042L20.343,28.141A2.067,2.067,0,0,1,18.9,28.8Z" transform="translate(6.639 8.012)"/></svg>