<svg xmlns="http://www.w3.org/2000/svg" width="114.785" height="57.263" viewBox="0 0 114.785 57.263"><defs><style>.a{fill:#fff;}</style></defs><path class="a" d="M52.037,62.5a2.618,2.618,0,0,1-1.175-.268l-14.89-7.046-14.89,7.046a2.719,2.719,0,0,1-3.875-2.815l2.137-16.349L7.991,31.1a2.733,2.733,0,0,1,1.487-4.564L25.69,23.509,33.572,9.024a2.853,2.853,0,0,1,4.8,0l7.882,14.485,16.212,3.023A2.733,2.733,0,0,1,63.953,31.1L52.611,43.072l2.137,16.349A2.733,2.733,0,0,1,52.015,62.5ZM35.972,49.386a2.7,2.7,0,0,1,1.175.268L48.675,55.12l-1.64-12.665a2.733,2.733,0,0,1,.722-2.23l8.784-9.292L43.969,28.587a2.733,2.733,0,0,1-1.9-1.377l-6.1-11.162L29.866,27.264a2.733,2.733,0,0,1-1.9,1.377L15.4,30.987l8.784,9.292a2.733,2.733,0,0,1,.722,2.23l-1.64,12.665,11.528-5.466a2.7,2.7,0,0,1,1.181-.306Z" transform="translate(21.421 -5.241)"/><path class="a" d="M12.658,52.292A2.733,2.733,0,0,1,9.925,49.2l1.684-12.813-8.861-9.38a2.733,2.733,0,0,1,1.481-4.564l12.714-2.405L23.1,8.689A2.733,2.733,0,0,1,25.5,7.262h0a2.733,2.733,0,0,1,2.4,1.421l5.739,10.55a2.733,2.733,0,0,1-4.8,2.618L25.5,15.724l-4.373,8.09a2.733,2.733,0,0,1-1.9,1.383l-9.063,1.7L16.5,33.587a2.733,2.733,0,0,1,.727,2.236l-1.2,9.112,8.3-3.952a2.733,2.733,0,0,1,2.35,0l8.09,3.826a2.733,2.733,0,0,1-2.339,4.919l-6.915-3.28-11.67,5.586A2.733,2.733,0,0,1,12.658,52.292Zm93.47,0a2.733,2.733,0,0,1-1.181-.268L93.283,46.476l-6.915,3.28a2.733,2.733,0,1,1-2.339-4.919l8.09-3.826a2.733,2.733,0,0,1,2.35,0l8.3,3.952-1.2-9.112a2.733,2.733,0,0,1,.727-2.236l6.335-6.691-9.063-1.7a2.733,2.733,0,0,1-1.9-1.383l-4.373-8.09-3.334,6.128a2.733,2.733,0,1,1-4.8-2.618l5.739-10.55a2.733,2.733,0,0,1,2.4-1.421h0a2.733,2.733,0,0,1,2.4,1.427l6.149,11.326,12.714,2.383a2.733,2.733,0,0,1,1.481,4.564L107.15,36.38l1.684,12.813a2.733,2.733,0,0,1-2.733,3.088Z" transform="translate(-2 -7.262)"/></svg>