<svg xmlns="http://www.w3.org/2000/svg" xmlns:xlink="http://www.w3.org/1999/xlink" width="58.492" height="58.481" viewBox="0 0 58.492 58.481"><defs><style>.a{fill:#fff;}.b{clip-path:url(#a);}</style><clipPath id="a"><rect class="a" width="58.492" height="58.481"/></clipPath></defs><g class="b"><path class="a" d="M30.522,48.313c0,.906-.009,1.769.013,2.631,0,.093.171.212.286.267a3.8,3.8,0,0,1,2.21,3.83,3.809,3.809,0,0,1-7.551.241,3.771,3.771,0,0,1,2.2-4.065.424.424,0,0,0,.3-.461c-.017-.8-.006-1.6-.006-2.444H4.129c-1.125,0-1.576-.45-1.576-1.57q0-19.277,0-38.553V7.637c-.411,0-.784,0-1.157,0A1.271,1.271,0,0,1,.012,6.246C.007,4.624.031,3,0,1.381A1.343,1.343,0,0,1,1.395,0Q29.14.024,56.884,0a1.438,1.438,0,0,1,1.608,1.6c-.045,1.523-.011,3.048-.013,4.572a1.3,1.3,0,0,1-1.464,1.464H55.929v.511q0,19.332,0,38.663a1.309,1.309,0,0,1-1.1,1.485,3.625,3.625,0,0,1-.511.016h-23.8ZM53.365,7.662H5.121V45.735H53.365ZM2.58,5.057H55.9V2.584H2.58ZM29.23,55.926a1.267,1.267,0,1,0-1.255-1.285,1.255,1.255,0,0,0,1.255,1.285" transform="translate(-0.001 0.001)"/><path class="a" d="M148.027,267.052h.5c1.5,0,3-.006,4.5,0a1.27,1.27,0,0,1,1.356,1.384,7.624,7.624,0,1,1-7.8-7.735,1.275,1.275,0,0,1,1.444,1.367c.01,1.5,0,3,0,4.5,0,.144,0,.288,0,.483m-2.54-3.51c-2.054.213-3.872,2.605-3.8,4.936a5.06,5.06,0,0,0,4.8,4.927c2.43.086,4.836-1.708,5.066-3.8h-.4q-2.1,0-4.206,0a1.3,1.3,0,0,1-1.457-1.467c0-.841,0-1.682,0-2.524v-2.071" transform="translate(-128.955 -241.628)"/><path class="a" d="M282.482,217.46c-1.011,0-2.022,0-3.033,0a1.273,1.273,0,0,1-1.4-1.379q-.008-3.088,0-6.176a1.242,1.242,0,0,1,1.4-1.35A7.646,7.646,0,0,1,286.936,216a1.285,1.285,0,0,1-1.421,1.46c-1.011,0-2.022,0-3.033,0m-1.856-6.073v3.5h3.488a4.771,4.771,0,0,0-3.488-3.5" transform="translate(-257.704 -193.294)"/><path class="a" d="M440.148,263.173h-7.019a1.277,1.277,0,1,1-.011-2.553q7-.005,14,0a1.293,1.293,0,0,1,1.346.859,1.164,1.164,0,0,1-.392,1.375,1.933,1.933,0,0,1-.98.3c-2.315.025-4.63.013-6.945.013Z" transform="translate(-400.216 -241.549)"/><path class="a" d="M440.143,350.028q-3.491,0-6.982,0a1.279,1.279,0,1,1-.03-2.556q7,0,14,0a1.281,1.281,0,1,1-.007,2.55q-3.491,0-6.982,0Z" transform="translate(-400.22 -322.047)"/><path class="a" d="M440.195,434.37q3.491,0,6.983,0a1.276,1.276,0,0,1,1.362,1.191,1.262,1.262,0,0,1-1.16,1.35,4.473,4.473,0,0,1-.475.011l-13.746.005a1.284,1.284,0,0,1-1.341-1.291,1.267,1.267,0,0,1,1.321-1.267q3.528,0,7.056,0" transform="translate(-400.224 -402.588)"/></g></svg>